<svg id="svg" xmlns="http://www.w3.org/2000/svg" xmlns:xlink="http://www.w3.org/1999/xlink" width="400" height="400" viewBox="0, 0, 400,400"><g id="svgg"><path id="path0" d="M0.000 200.000 L 0.000 400.000 200.000 400.000 L 400.000 400.000 400.000 200.000 L 400.000 0.000 200.000 0.000 L 0.000 0.000 0.000 200.000 M393.400 200.000 L 393.400 393.400 200.000 393.400 L 6.600 393.400 6.498 200.400 C 6.441 94.250,6.481 7.175,6.585 6.900 C 6.737 6.500,45.647 6.419,200.088 6.500 L 393.400 6.600 393.400 200.000 M56.800 17.237 C 53.141 17.952,48.988 18.947,48.600 19.201 C 48.380 19.345,47.300 19.794,46.200 20.200 C 36.524 23.767,26.810 34.445,23.457 45.200 C 21.371 51.890,21.196 63.384,23.103 68.400 C 23.229 68.730,23.707 70.090,24.166 71.422 C 31.883 93.823,60.076 104.517,81.016 92.985 C 107.530 78.384,109.812 42.434,85.372 24.379 C 84.196 23.511,83.133 22.800,83.009 22.800 C 82.885 22.800,82.113 22.384,81.292 21.875 C 80.471 21.367,79.170 20.710,78.400 20.415 C 77.630 20.121,76.460 19.660,75.800 19.390 C 70.708 17.312,61.662 16.287,56.800 17.237 M251.600 41.400 L 251.600 66.000 297.000 66.000 L 342.400 66.000 342.400 41.400 L 342.400 16.800 297.000 16.800 L 251.600 16.800 251.600 41.400 M68.483 18.990 C 100.701 25.155,112.173 64.748,87.957 86.202 C 68.680 103.280,39.022 97.759,27.424 74.932 C 13.054 46.649,37.680 13.096,68.483 18.990 M340.600 41.400 L 340.600 64.200 297.000 64.200 L 253.400 64.200 253.296 41.800 C 253.239 29.480,253.279 19.174,253.384 18.898 C 253.537 18.499,262.490 18.417,297.088 18.498 L 340.600 18.600 340.600 41.400 M368.797 18.748 C 356.804 22.706,359.260 40.079,371.827 40.175 C 383.374 40.264,387.335 25.945,377.483 19.726 C 375.754 18.635,370.824 18.079,368.797 18.748 M377.412 21.627 C 382.251 25.103,382.935 31.770,378.879 35.920 C 371.428 43.542,358.886 34.979,363.430 25.372 C 365.954 20.038,372.688 18.233,377.412 21.627 M264.800 41.000 L 264.800 53.200 277.000 53.200 L 289.200 53.200 289.200 41.000 L 289.200 28.800 277.000 28.800 L 264.800 28.800 264.800 41.000 M307.600 41.000 L 307.600 53.200 319.800 53.200 L 332.000 53.200 332.000 41.000 L 332.000 28.800 319.800 28.800 L 307.600 28.800 307.600 41.000 M56.800 30.877 C 43.582 34.615,35.568 44.085,34.891 56.766 C 34.580 62.580,37.650 70.501,42.133 75.450 C 52.860 87.294,71.280 87.162,82.138 75.163 C 87.377 69.374,90.543 58.522,88.631 52.910 C 88.284 51.891,88.000 50.693,88.000 50.247 C 88.000 49.802,87.168 47.719,86.151 45.618 C 80.984 34.948,67.087 27.969,56.800 30.877 M287.400 41.000 L 287.400 51.400 277.000 51.400 L 266.600 51.400 266.493 41.407 C 266.434 35.911,266.474 31.183,266.583 30.900 C 266.738 30.496,268.984 30.409,277.090 30.493 L 287.400 30.600 287.400 41.000 M330.200 41.000 L 330.200 51.400 319.700 51.507 L 309.200 51.613 309.200 41.273 C 309.200 35.586,309.323 30.810,309.473 30.660 C 309.624 30.510,314.349 30.435,319.973 30.493 L 330.200 30.600 330.200 41.000 M69.200 34.019 C 81.490 37.620,89.248 51.766,85.565 63.858 C 79.397 84.102,53.029 88.142,41.597 70.595 C 29.230 51.614,47.341 27.615,69.200 34.019 M114.400 109.260 C 109.393 110.272,106.563 110.967,106.220 111.267 C 106.011 111.450,105.589 111.600,105.283 111.600 C 104.517 111.600,98.490 114.657,96.927 115.838 C 96.226 116.367,95.547 116.800,95.416 116.800 C 94.936 116.800,90.570 120.928,88.193 123.629 C 86.617 125.420,83.090 131.016,82.412 132.800 C 82.119 133.570,81.665 134.740,81.401 135.400 C 71.333 160.649,91.075 188.224,119.200 188.194 C 154.649 188.156,173.012 146.415,148.644 121.265 C 139.821 112.159,125.278 107.061,114.400 109.260 M275.543 108.991 C 275.438 109.096,274.103 109.359,272.576 109.577 C 260.056 111.363,248.351 120.330,242.696 132.470 C 228.240 163.504,257.594 197.791,290.400 188.190 C 291.610 187.836,292.960 187.437,293.400 187.304 C 302.661 184.504,314.504 172.661,317.304 163.400 C 318.527 159.356,318.914 157.613,319.434 153.809 C 321.926 135.590,310.216 117.189,292.200 111.010 C 287.867 109.524,276.400 108.134,275.543 108.991 M126.000 110.981 C 134.552 112.591,141.125 115.935,146.844 121.587 C 149.197 123.912,152.800 128.391,152.800 128.991 C 152.800 129.115,153.220 129.887,153.734 130.708 C 154.636 132.150,156.110 135.879,157.249 139.600 C 157.627 140.836,157.800 143.593,157.800 148.400 C 157.800 153.207,157.627 155.964,157.249 157.200 C 156.110 160.921,154.636 164.650,153.734 166.092 C 153.220 166.913,152.800 167.706,152.800 167.856 C 152.800 168.005,152.054 169.134,151.142 170.364 C 130.453 198.269,87.447 189.024,80.990 155.283 C 77.610 137.618,87.638 120.709,106.200 112.775 C 110.955 110.743,120.259 109.900,126.000 110.981 M285.600 110.981 C 319.000 117.269,329.845 158.550,303.638 179.640 C 299.289 183.140,295.044 185.266,288.600 187.169 C 285.043 188.220,272.367 188.369,270.765 187.379 C 270.570 187.258,269.392 186.894,268.149 186.570 C 252.646 182.532,240.418 166.144,240.415 149.400 C 240.412 128.276,257.867 110.656,279.000 110.451 C 280.980 110.431,283.950 110.670,285.600 110.981 M108.800 148.814 L 108.800 166.028 109.700 165.550 C 110.195 165.287,113.930 162.881,118.000 160.203 C 125.623 155.187,130.534 151.983,133.500 150.091 C 134.435 149.494,135.200 148.873,135.200 148.710 C 135.200 148.472,129.244 144.387,126.313 142.615 C 124.346 141.426,118.173 137.412,118.000 137.210 C 117.678 136.833,109.332 131.600,109.053 131.600 C 108.914 131.600,108.800 139.346,108.800 148.814 M262.800 150.000 L 262.800 167.200 280.000 167.200 L 297.200 167.200 297.200 150.000 L 297.200 132.800 280.000 132.800 L 262.800 132.800 262.800 150.000 M196.800 134.742 C 185.922 137.093,180.271 149.951,185.964 159.400 C 192.457 170.179,209.135 170.415,215.778 159.822 C 223.760 147.095,211.936 131.469,196.800 134.742 M208.068 137.368 C 221.620 144.122,218.405 164.184,203.491 165.924 C 186.378 167.920,178.177 147.362,192.432 138.197 C 196.472 135.599,203.744 135.213,208.068 137.368 M197.458 189.614 C 189.655 192.578,188.633 201.741,195.608 206.195 C 200.921 209.587,208.559 207.054,210.584 201.229 C 213.175 193.777,205.163 186.687,197.458 189.614 M204.103 190.985 C 213.811 195.042,209.597 207.502,199.045 205.940 C 195.627 205.434,192.426 201.791,192.420 198.400 C 192.411 193.034,198.999 188.853,204.103 190.985 M62.400 242.000 L 62.400 259.200 195.264 259.200 L 328.127 259.200 327.864 250.736 C 327.719 246.080,327.600 238.340,327.600 233.536 L 327.600 224.800 195.000 224.800 L 62.400 224.800 62.400 242.000 M326.000 242.000 L 326.000 257.600 195.000 257.600 L 64.000 257.600 64.000 242.000 L 64.000 226.400 195.000 226.400 L 326.000 226.400 326.000 242.000 M74.800 242.000 L 74.800 251.200 76.586 251.200 L 78.371 251.200 78.486 247.300 L 78.600 243.400 195.300 243.299 C 311.634 243.199,312.000 243.196,312.000 242.400 C 312.000 241.604,311.634 241.601,195.300 241.501 L 78.600 241.400 78.486 237.100 L 78.373 232.800 76.586 232.800 L 74.800 232.800 74.800 242.000 M49.461 237.100 C 44.435 239.649,42.102 241.030,42.461 241.242 C 42.757 241.417,46.150 243.525,50.000 245.927 L 57.000 250.295 57.113 245.925 C 57.176 243.522,57.176 239.693,57.113 237.416 L 57.000 233.276 49.461 237.100 M357.201 234.329 C 351.996 236.270,349.536 242.064,351.913 246.785 C 355.695 254.295,366.305 254.295,370.087 246.785 C 373.892 239.226,365.591 231.202,357.201 234.329 M332.630 235.152 C 332.346 235.610,332.865 251.203,333.163 251.190 C 333.797 251.162,346.804 244.147,346.866 243.800 C 346.928 243.450,337.997 237.568,336.400 236.907 C 336.070 236.770,335.134 236.243,334.319 235.736 C 333.505 235.229,332.745 234.966,332.630 235.152 M364.866 236.034 C 370.810 239.066,371.191 246.125,365.592 249.500 C 357.561 254.341,348.517 245.238,354.289 238.123 C 356.547 235.340,361.564 234.349,364.866 236.034 M62.400 282.801 L 62.400 300.001 195.100 299.901 L 327.800 299.800 327.904 282.700 L 328.009 265.600 195.204 265.600 L 62.400 265.600 62.400 282.801 M326.139 271.462 C 326.645 279.724,326.457 297.455,325.858 297.952 C 325.459 298.283,290.941 298.375,194.758 298.301 L 64.200 298.200 64.095 282.700 L 63.991 267.200 194.935 267.200 L 325.878 267.200 326.139 271.462 M74.800 282.800 L 74.800 292.000 76.587 292.000 L 78.375 292.000 78.487 287.300 L 78.600 282.600 195.300 282.499 C 311.634 282.399,312.000 282.396,312.000 281.600 C 312.000 280.804,311.634 280.801,195.300 280.701 L 78.600 280.600 78.484 277.100 L 78.369 273.600 76.584 273.600 L 74.800 273.600 74.800 282.800 M358.296 274.172 C 350.071 277.107,349.422 287.343,357.200 291.450 C 358.977 292.388,364.479 292.465,366.000 291.573 C 369.324 289.623,370.742 287.882,371.513 284.804 C 373.218 278.003,365.334 271.660,358.296 274.172 M332.219 274.695 C 332.084 275.048,332.096 278.810,332.247 283.055 L 332.522 290.774 339.561 287.144 C 343.432 285.147,346.753 283.421,346.939 283.309 C 347.284 283.101,345.657 282.010,338.691 277.776 C 332.088 273.763,332.501 273.959,332.219 274.695 M47.892 278.511 C 42.236 281.410,40.887 282.254,41.292 282.643 C 42.078 283.397,55.107 291.200,55.580 291.200 C 55.860 291.200,56.000 288.455,56.000 283.000 C 56.000 276.688,55.885 274.808,55.500 274.834 C 55.225 274.853,51.801 276.508,47.892 278.511 M365.766 276.132 C 373.158 280.229,370.369 290.769,361.887 290.793 C 352.406 290.820,349.818 279.684,358.386 275.732 C 360.107 274.939,363.993 275.150,365.766 276.132 M62.400 323.400 L 62.400 340.400 195.200 340.400 L 328.000 340.400 328.000 323.400 L 328.000 306.400 195.200 306.400 L 62.400 306.400 62.400 323.400 M326.200 323.400 L 326.200 338.600 195.100 338.701 L 64.000 338.801 64.000 323.400 L 64.000 307.999 195.100 308.099 L 326.200 308.200 326.200 323.400 M47.600 317.652 C 43.750 319.627,40.600 321.430,40.600 321.659 C 40.600 321.887,43.570 323.875,47.200 326.077 C 50.830 328.278,54.115 330.359,54.500 330.702 C 55.164 331.292,55.200 330.882,55.200 322.662 C 55.200 317.898,55.065 314.014,54.900 314.031 C 54.735 314.048,51.450 315.677,47.600 317.652 M74.800 323.400 L 74.800 332.400 76.586 332.400 L 78.371 332.400 78.486 328.500 L 78.600 324.600 195.300 324.499 C 311.634 324.399,312.000 324.396,312.000 323.600 C 312.000 322.804,311.634 322.801,195.300 322.701 L 78.600 322.600 78.486 318.500 L 78.372 314.400 76.586 314.400 L 74.800 314.400 74.800 323.400 M331.408 315.987 C 331.179 316.358,331.541 331.674,331.785 331.918 C 331.851 331.985,332.524 331.692,333.280 331.267 C 334.036 330.843,337.208 329.202,340.328 327.623 C 343.447 326.043,346.000 324.655,346.000 324.539 C 346.000 324.252,344.273 322.830,343.904 322.813 C 343.741 322.806,341.410 321.436,338.722 319.768 C 332.571 315.950,331.707 315.504,331.408 315.987 M356.800 316.268 C 348.173 319.286,348.268 330.815,356.944 333.761 C 366.782 337.101,374.774 325.904,367.656 318.752 C 364.701 315.783,360.762 314.882,356.800 316.268 M363.651 317.764 C 372.252 321.358,369.553 332.820,360.113 332.793 C 353.588 332.775,349.579 325.671,353.306 320.731 C 355.644 317.633,360.207 316.324,363.651 317.764 M197.201 354.329 C 191.996 356.270,189.536 362.064,191.913 366.785 C 195.695 374.295,206.305 374.295,210.087 366.785 C 213.892 359.226,205.591 351.202,197.201 354.329 M204.866 356.034 C 210.810 359.066,211.191 366.125,205.592 369.500 C 197.561 374.341,188.517 365.238,194.289 358.123 C 196.547 355.340,201.564 354.349,204.866 356.034 " stroke="none" fill="#060606" fill-rule="evenodd"></path><path id="path1" d="M6.800 200.000 L 6.800 393.200 200.000 393.200 L 393.200 393.200 393.200 200.000 L 393.200 6.800 200.000 6.800 L 6.800 6.800 6.800 200.000 M68.469 16.835 C 70.983 17.349,74.671 18.329,75.800 18.783 C 76.240 18.960,77.410 19.433,78.400 19.836 C 84.957 22.499,96.800 32.872,96.800 35.950 C 96.800 36.161,96.950 36.393,97.132 36.467 C 97.519 36.622,100.178 42.126,100.579 43.600 C 100.728 44.150,101.008 44.960,101.201 45.400 C 104.727 53.434,102.875 68.611,97.176 78.388 C 83.913 101.139,52.077 105.054,33.107 86.267 C 20.717 73.998,17.439 53.449,25.533 38.800 C 26.080 37.810,26.724 36.646,26.964 36.212 C 30.435 29.942,38.820 22.577,45.600 19.843 C 46.590 19.444,47.670 18.987,48.000 18.827 C 48.330 18.667,49.950 18.219,51.600 17.831 C 53.250 17.443,55.140 16.980,55.800 16.803 C 57.607 16.319,66.046 16.340,68.469 16.835 M342.703 41.300 L 342.600 66.200 297.000 66.200 L 251.400 66.200 251.297 41.300 L 251.194 16.400 297.000 16.400 L 342.806 16.400 342.703 41.300 M377.842 19.290 C 379.935 20.624,382.390 23.476,382.679 24.908 C 382.803 25.518,383.060 26.114,383.252 26.232 C 383.709 26.514,383.703 31.810,383.244 32.705 C 383.049 33.087,382.554 34.091,382.144 34.936 C 377.085 45.377,360.412 41.130,360.412 29.400 C 360.412 20.763,370.749 14.767,377.842 19.290 M58.743 18.991 C 58.638 19.096,57.303 19.359,55.776 19.577 C 42.681 21.445,29.049 32.923,25.821 44.800 C 25.672 45.350,25.390 46.160,25.195 46.600 C 23.331 50.806,23.331 63.994,25.195 68.200 C 25.390 68.640,25.671 69.450,25.819 70.000 C 26.106 71.065,28.833 76.864,29.205 77.200 C 29.327 77.310,30.013 78.327,30.730 79.461 C 34.683 85.712,44.386 92.468,52.266 94.456 C 71.379 99.279,93.411 87.543,98.179 70.000 C 98.328 69.450,98.600 68.640,98.783 68.200 C 100.225 64.737,100.711 54.441,99.653 49.800 C 96.604 36.428,88.769 27.206,75.600 21.486 C 71.676 19.782,59.721 18.012,58.743 18.991 M253.600 41.400 L 253.600 64.000 297.000 64.000 L 340.400 64.000 340.400 41.400 L 340.400 18.800 297.000 18.800 L 253.600 18.800 253.600 41.400 M369.600 20.643 C 359.580 24.462,361.450 38.132,372.000 38.187 C 383.556 38.246,384.133 21.310,372.600 20.569 C 371.280 20.484,369.930 20.517,369.600 20.643 M289.400 41.000 L 289.400 53.400 277.000 53.400 L 264.600 53.400 264.494 41.404 C 264.436 34.807,264.476 29.179,264.584 28.899 C 264.738 28.497,267.402 28.411,277.090 28.494 L 289.400 28.600 289.400 41.000 M332.200 41.000 L 332.200 53.400 319.700 53.506 L 307.200 53.611 307.200 41.000 L 307.200 28.389 319.700 28.494 L 332.200 28.600 332.200 41.000 M71.853 31.355 C 78.718 34.183,87.434 42.533,87.577 46.420 C 87.590 46.761,87.760 47.211,87.956 47.420 C 89.507 49.077,90.236 60.494,89.040 64.400 C 86.596 72.381,77.542 82.800,73.051 82.800 C 72.781 82.800,72.389 82.956,72.180 83.147 C 69.859 85.266,57.761 85.532,52.867 83.572 C 27.999 73.615,27.932 41.340,52.758 31.112 C 57.100 29.323,67.234 29.452,71.853 31.355 M266.800 41.000 L 266.800 51.200 277.000 51.200 L 287.200 51.200 287.200 41.000 L 287.200 30.800 277.000 30.800 L 266.800 30.800 266.800 41.000 M309.600 41.000 L 309.600 51.200 319.800 51.200 L 330.000 51.200 330.000 41.000 L 330.000 30.800 319.800 30.800 L 309.600 30.800 309.600 41.000 M57.200 34.263 C 55.550 34.586,54.029 35.019,53.820 35.225 C 53.611 35.431,53.209 35.600,52.927 35.600 C 51.921 35.600,46.970 38.915,45.249 40.742 C 26.002 61.164,51.450 92.216,74.889 76.909 C 88.559 67.983,89.035 46.616,75.752 38.153 C 75.118 37.749,74.510 37.324,74.400 37.209 C 74.290 37.094,73.480 36.665,72.600 36.256 C 71.720 35.846,70.704 35.362,70.343 35.179 C 67.668 33.827,61.595 33.403,57.200 34.263 M126.176 108.848 C 166.068 116.220,172.803 168.196,136.076 185.256 C 134.248 186.105,132.491 186.800,132.171 186.800 C 131.851 186.800,131.277 186.973,130.895 187.183 C 127.048 189.306,110.952 189.306,107.105 187.183 C 106.723 186.973,106.135 186.800,105.797 186.800 C 105.026 186.800,98.247 183.585,98.067 183.134 C 97.993 182.950,97.761 182.800,97.550 182.800 C 96.905 182.800,92.745 179.592,90.063 177.027 C 86.450 173.571,83.240 168.577,80.789 162.600 C 77.995 155.786,77.637 146.576,79.848 138.400 C 80.175 137.190,80.592 135.840,80.774 135.400 C 80.955 134.960,81.431 133.790,81.831 132.800 C 83.960 127.530,90.198 119.879,95.314 116.264 C 100.345 112.709,108.402 109.259,111.875 109.172 C 112.494 109.156,113.360 108.989,113.800 108.800 C 114.974 108.296,123.363 108.328,126.176 108.848 M285.776 108.848 C 303.930 112.203,316.849 125.311,319.829 143.400 C 321.322 152.462,318.026 167.311,313.455 172.111 C 313.199 172.380,312.701 173.050,312.349 173.600 C 310.727 176.130,306.875 179.870,302.341 183.315 C 294.607 189.193,279.265 191.948,269.700 189.177 C 265.316 187.907,264.334 187.549,261.200 186.088 C 245.932 178.965,235.582 159.086,238.834 143.131 C 239.475 139.985,240.395 136.311,240.768 135.400 C 245.147 124.726,252.598 116.667,262.200 112.221 C 263.520 111.610,264.870 110.981,265.200 110.823 C 265.736 110.567,268.195 109.944,273.000 108.848 C 275.300 108.323,282.935 108.323,285.776 108.848 M115.000 111.248 C 111.929 111.790,107.491 112.813,106.600 113.185 C 106.160 113.368,105.170 113.785,104.400 114.111 C 103.630 114.436,102.820 114.770,102.600 114.851 C 99.165 116.127,90.032 123.778,88.215 126.902 C 87.800 127.616,87.357 128.290,87.230 128.400 C 84.794 130.517,81.609 140.282,80.914 147.762 C 80.642 150.698,82.065 159.224,83.225 161.600 C 83.386 161.930,83.843 163.010,84.240 164.000 C 90.314 179.134,111.030 189.729,126.600 185.664 C 129.868 184.811,132.959 183.891,133.600 183.580 C 142.708 179.166,149.193 173.520,152.629 167.013 C 152.865 166.566,153.261 165.840,153.510 165.400 C 154.391 163.839,155.174 161.754,156.762 156.736 C 161.511 141.737,150.231 119.680,135.000 114.184 C 133.900 113.787,132.820 113.345,132.600 113.201 C 132.216 112.950,128.579 112.105,124.069 111.219 C 121.594 110.732,117.852 110.744,115.000 111.248 M274.800 111.263 C 269.775 112.286,266.948 112.943,266.404 113.216 C 266.072 113.382,264.990 113.844,264.000 114.243 C 256.219 117.380,247.380 126.219,244.243 134.000 C 243.844 134.990,243.382 136.072,243.216 136.404 C 242.933 136.968,242.204 140.157,241.221 145.131 C 240.473 148.914,240.712 152.028,242.268 158.800 C 242.596 160.230,243.009 161.760,243.185 162.200 C 243.360 162.640,243.831 163.810,244.230 164.800 C 247.561 173.059,258.061 182.977,266.000 185.364 C 287.714 191.894,307.533 182.753,315.356 162.600 C 317.697 156.570,318.269 146.429,316.607 140.400 C 315.479 136.306,314.856 134.629,313.484 132.000 C 309.459 124.289,301.889 117.090,294.800 114.230 C 293.810 113.831,292.640 113.360,292.200 113.185 C 291.206 112.788,286.993 111.813,283.776 111.235 C 280.960 110.730,277.363 110.741,274.800 111.263 M113.282 133.463 C 115.547 134.928,120.460 138.130,124.200 140.579 C 127.940 143.028,132.123 145.745,133.497 146.616 C 136.410 148.464,136.515 148.823,134.500 150.044 C 133.675 150.544,132.280 151.506,131.400 152.181 C 130.520 152.856,129.170 153.753,128.400 154.174 C 127.630 154.595,126.910 155.043,126.800 155.170 C 126.690 155.296,126.240 155.618,125.800 155.885 C 124.766 156.511,118.549 160.512,113.200 163.993 C 110.890 165.496,108.882 166.608,108.739 166.463 C 108.144 165.864,108.186 130.800,108.782 130.800 C 108.992 130.800,111.017 131.998,113.282 133.463 M297.504 150.104 L 297.608 167.608 280.104 167.504 L 262.600 167.400 262.496 150.400 C 262.438 141.050,262.478 133.173,262.585 132.896 C 262.737 132.499,266.454 132.414,280.089 132.496 L 297.400 132.600 297.504 150.104 M208.800 135.494 C 224.474 143.143,221.104 165.144,203.814 168.050 C 188.590 170.608,177.570 153.905,186.208 141.363 C 190.931 134.506,201.271 131.819,208.800 135.494 M197.600 136.649 C 189.481 138.217,183.939 147.061,186.234 154.789 C 191.096 171.161,216.176 167.987,216.176 151.000 C 216.176 141.630,207.303 134.776,197.600 136.649 M204.418 188.906 C 215.641 192.818,212.919 208.181,201.000 208.196 C 191.723 208.208,187.029 198.069,193.316 191.598 C 195.993 188.843,200.854 187.664,204.418 188.906 M198.407 191.356 C 190.336 193.928,191.782 204.290,200.400 205.642 C 205.228 206.399,210.188 201.113,208.789 196.700 C 207.453 192.483,202.642 190.007,198.407 191.356 M328.200 242.000 L 328.200 259.400 195.100 259.501 L 62.000 259.601 62.000 242.000 L 62.000 224.399 195.100 224.499 L 328.200 224.600 328.200 242.000 M64.400 242.000 L 64.400 257.200 195.000 257.200 L 325.600 257.200 325.600 242.000 L 325.600 226.800 195.000 226.800 L 64.400 226.800 64.400 242.000 M57.600 241.824 C 57.600 247.734,57.459 250.800,57.187 250.800 C 56.461 250.800,41.192 241.136,41.396 240.806 C 41.504 240.632,44.453 239.037,47.950 237.262 C 51.447 235.487,54.914 233.691,55.654 233.270 C 57.619 232.152,57.600 232.068,57.600 241.824 M78.800 236.799 L 78.800 241.199 195.500 241.299 L 312.200 241.400 312.200 242.400 L 312.200 243.400 195.500 243.501 L 78.800 243.601 78.800 247.622 L 78.800 251.642 76.700 251.521 L 74.600 251.400 74.492 242.409 C 74.365 231.794,74.226 232.400,76.787 232.400 L 78.800 232.400 78.800 236.799 M365.748 234.193 C 369.458 235.948,371.600 239.244,371.600 243.198 C 371.600 244.493,371.420 245.664,371.200 245.800 C 370.980 245.936,370.800 246.364,370.800 246.752 C 370.800 247.139,370.170 248.193,369.399 249.093 C 364.357 254.983,354.378 253.773,351.340 246.902 C 347.556 238.347,356.972 230.041,365.748 234.193 M339.123 237.842 C 347.897 243.212,348.455 243.588,348.221 243.966 C 348.107 244.151,346.435 245.106,344.507 246.088 C 342.578 247.071,339.247 248.803,337.106 249.937 C 331.532 252.890,332.000 253.526,332.000 243.000 C 332.000 236.939,332.138 234.000,332.423 234.000 C 332.656 234.000,335.671 235.729,339.123 237.842 M358.274 236.180 C 356.038 236.977,353.639 239.189,353.613 240.476 C 353.606 240.848,353.420 241.264,353.200 241.400 C 352.980 241.536,352.800 242.256,352.800 243.000 C 352.800 243.744,352.980 244.464,353.200 244.600 C 353.420 244.736,353.606 245.152,353.614 245.524 C 353.685 248.830,360.934 251.511,364.637 249.600 C 373.360 245.099,367.560 232.867,358.274 236.180 M328.200 282.800 L 328.200 300.200 195.200 300.200 L 62.200 300.200 62.096 282.699 L 61.992 265.199 195.096 265.299 L 328.200 265.400 328.200 282.800 M64.400 282.801 L 64.400 298.001 195.100 297.901 L 325.800 297.800 325.940 296.400 C 326.017 295.630,325.951 288.835,325.794 281.300 L 325.507 267.600 194.954 267.600 L 64.400 267.600 64.400 282.801 M78.800 276.799 L 78.800 280.399 195.500 280.499 L 312.200 280.600 312.200 281.600 L 312.200 282.600 195.513 282.701 L 78.825 282.801 78.713 287.501 L 78.600 292.200 76.600 292.200 L 74.600 292.200 74.493 282.700 L 74.386 273.200 76.593 273.200 L 78.800 273.200 78.800 276.799 M340.189 278.054 C 345.594 281.410,347.893 283.046,347.635 283.354 C 347.431 283.599,344.954 284.970,342.131 286.400 C 339.309 287.830,336.910 289.094,336.800 289.210 C 335.994 290.054,332.229 291.571,331.972 291.155 C 331.640 290.617,331.513 274.065,331.837 273.540 C 332.149 273.035,331.804 272.848,340.189 278.054 M366.155 273.981 C 372.634 276.758,374.237 284.792,369.322 289.854 C 363.019 296.344,351.200 291.874,351.200 283.000 C 351.200 275.842,359.218 271.007,366.155 273.981 M56.308 282.805 C 56.430 292.385,56.398 292.496,53.944 291.031 C 52.985 290.458,51.885 289.881,51.500 289.748 C 51.115 289.615,50.800 289.348,50.800 289.153 C 50.800 288.959,50.617 288.800,50.393 288.800 C 49.883 288.800,41.448 283.547,41.267 283.117 C 41.193 282.942,40.863 282.800,40.533 282.800 C 38.912 282.800,40.915 281.464,47.828 277.931 C 51.993 275.803,55.580 274.108,55.800 274.164 C 56.047 274.227,56.241 277.539,56.308 282.805 M358.607 276.301 C 351.129 279.395,352.524 289.149,360.604 290.262 C 364.347 290.777,368.334 288.316,369.339 284.870 C 371.025 279.086,364.488 273.867,358.607 276.301 M328.200 323.400 L 328.200 340.600 195.100 340.701 L 62.000 340.801 62.000 323.400 L 62.000 305.999 195.100 306.099 L 328.200 306.200 328.200 323.400 M64.400 323.400 L 64.400 338.400 195.181 338.400 L 325.963 338.400 325.964 323.400 L 325.966 308.400 195.183 308.400 L 64.400 308.400 64.400 323.400 M55.600 322.400 C 55.600 331.831,55.593 331.865,53.800 330.742 C 53.140 330.329,52.285 329.882,51.900 329.749 C 51.515 329.616,51.200 329.369,51.200 329.200 C 51.200 329.031,50.885 328.788,50.500 328.658 C 49.820 328.430,48.404 327.604,48.000 327.200 C 47.890 327.090,47.170 326.651,46.400 326.224 C 41.661 323.599,39.163 321.729,39.748 321.243 C 40.783 320.384,54.987 313.284,55.300 313.470 C 55.465 313.567,55.600 317.586,55.600 322.400 M78.800 318.199 L 78.800 322.399 195.500 322.499 L 312.200 322.600 312.200 323.600 L 312.200 324.600 195.500 324.701 L 78.800 324.801 78.800 328.801 L 78.800 332.800 76.600 332.800 L 74.400 332.800 74.400 323.400 L 74.400 314.000 76.600 314.000 L 78.800 314.000 78.800 318.199 M338.478 318.835 C 348.011 324.559,347.845 324.368,344.702 326.002 C 343.766 326.488,340.417 328.235,337.260 329.883 C 333.809 331.684,331.374 332.734,331.155 332.515 C 330.876 332.236,330.549 317.957,330.760 315.300 C 330.834 314.374,331.735 314.786,338.478 318.835 M364.626 315.956 C 374.925 320.634,371.763 334.800,360.420 334.800 C 349.173 334.800,345.736 320.699,355.836 315.994 C 357.988 314.991,362.459 314.972,364.626 315.956 M357.304 318.264 C 355.044 319.064,352.914 321.565,352.577 323.816 C 351.549 330.671,360.189 335.091,365.644 330.501 C 372.227 324.963,365.648 315.310,357.304 318.264 M205.748 354.193 C 209.458 355.948,211.600 359.244,211.600 363.198 C 211.600 364.493,211.420 365.664,211.200 365.800 C 210.980 365.936,210.800 366.364,210.800 366.752 C 210.800 367.139,210.170 368.193,209.399 369.093 C 204.357 374.983,194.378 373.773,191.340 366.902 C 187.556 358.347,196.972 350.041,205.748 354.193 M198.274 356.180 C 196.038 356.977,193.639 359.189,193.613 360.476 C 193.606 360.848,193.420 361.264,193.200 361.400 C 192.980 361.536,192.800 362.256,192.800 363.000 C 192.800 363.744,192.980 364.464,193.200 364.600 C 193.420 364.736,193.606 365.152,193.614 365.524 C 193.685 368.830,200.934 371.511,204.637 369.600 C 213.360 365.099,207.560 352.867,198.274 356.180 " stroke="none" fill="#fbfbfb" fill-rule="evenodd"></path><path id="path2" d="M6.585 6.900 C 6.481 7.175,6.441 94.250,6.498 200.400 L 6.600 393.400 200.000 393.400 L 393.400 393.400 393.400 200.000 L 393.400 6.600 200.088 6.500 C 45.647 6.419,6.737 6.500,6.585 6.900 M393.200 200.000 L 393.200 393.200 200.000 393.200 L 6.800 393.200 6.800 200.000 L 6.800 6.800 200.000 6.800 L 393.200 6.800 393.200 200.000 M251.388 41.200 C 251.388 54.730,251.438 60.265,251.500 53.500 C 251.561 46.735,251.561 35.665,251.500 28.900 C 251.438 22.135,251.388 27.670,251.388 41.200 M342.588 41.200 C 342.588 54.730,342.638 60.265,342.700 53.500 C 342.761 46.735,342.761 35.665,342.700 28.900 C 342.638 22.135,342.588 27.670,342.588 41.200 M370.900 18.287 C 371.505 18.378,372.495 18.378,373.100 18.287 C 373.705 18.195,373.210 18.120,372.000 18.120 C 370.790 18.120,370.295 18.195,370.900 18.287 M60.115 18.696 C 61.388 18.776,63.368 18.775,64.515 18.694 C 65.662 18.614,64.620 18.549,62.200 18.550 C 59.780 18.551,58.842 18.616,60.115 18.696 M275.331 18.700 C 287.393 18.759,307.013 18.759,318.931 18.700 C 330.849 18.641,320.980 18.593,297.000 18.593 C 273.020 18.593,263.269 18.641,275.331 18.700 M363.978 21.500 L 362.600 23.000 364.100 21.622 C 365.496 20.338,365.784 20.000,365.478 20.000 C 365.412 20.000,364.737 20.675,363.978 21.500 M379.600 21.400 C 380.346 22.170,381.047 22.800,381.157 22.800 C 381.267 22.800,380.746 22.170,380.000 21.400 C 379.254 20.630,378.553 20.000,378.443 20.000 C 378.333 20.000,378.854 20.630,379.600 21.400 M39.772 25.400 C 38.689 26.170,37.949 26.800,38.128 26.800 C 38.410 26.800,40.649 25.281,41.780 24.322 C 42.768 23.485,41.534 24.147,39.772 25.400 M33.200 28.600 C 32.228 29.590,31.523 30.400,31.633 30.400 C 31.743 30.400,32.628 29.590,33.600 28.600 C 34.572 27.610,35.277 26.800,35.167 26.800 C 35.057 26.800,34.172 27.610,33.200 28.600 M90.600 28.800 C 91.683 29.900,92.660 30.800,92.770 30.800 C 92.880 30.800,92.083 29.900,91.000 28.800 C 89.917 27.700,88.940 26.800,88.830 26.800 C 88.720 26.800,89.517 27.700,90.600 28.800 M362.520 29.200 C 362.520 30.410,362.595 30.905,362.687 30.300 C 362.778 29.695,362.778 28.705,362.687 28.100 C 362.595 27.495,362.520 27.990,362.520 29.200 M381.324 29.400 C 381.326 30.720,381.401 31.212,381.490 30.493 C 381.579 29.774,381.577 28.694,381.486 28.093 C 381.395 27.492,381.322 28.080,381.324 29.400 M89.200 29.800 C 89.946 30.570,90.647 31.200,90.757 31.200 C 90.867 31.200,90.346 30.570,89.600 29.800 C 88.854 29.030,88.153 28.400,88.043 28.400 C 87.933 28.400,88.454 29.030,89.200 29.800 M307.378 41.000 C 307.378 47.820,307.432 50.666,307.499 47.325 C 307.566 43.984,307.566 38.404,307.499 34.925 C 307.433 31.446,307.378 34.180,307.378 41.000 M60.100 30.294 C 61.145 30.376,62.855 30.376,63.900 30.294 C 64.945 30.212,64.090 30.144,62.000 30.144 C 59.910 30.144,59.055 30.212,60.100 30.294 M55.800 30.800 L 55.000 31.144 55.800 31.144 C 56.240 31.144,56.960 30.989,57.400 30.800 L 58.200 30.456 57.400 30.456 C 56.960 30.456,56.240 30.611,55.800 30.800 M66.600 30.800 C 67.040 30.989,67.760 31.144,68.200 31.144 L 69.000 31.144 68.200 30.800 C 67.760 30.611,67.040 30.456,66.600 30.456 L 65.800 30.456 66.600 30.800 M266.583 30.900 C 266.474 31.183,266.434 35.911,266.493 41.407 L 266.600 51.400 277.000 51.400 L 287.400 51.400 287.400 41.000 L 287.400 30.600 277.090 30.493 C 268.984 30.409,266.738 30.496,266.583 30.900 M319.700 30.696 L 330.000 30.814 330.000 41.000 L 330.000 51.187 319.500 51.304 L 309.000 51.421 319.600 51.410 L 330.200 51.400 330.200 41.000 L 330.200 30.600 319.800 30.589 L 309.400 30.579 319.700 30.696 M287.200 41.000 L 287.200 51.200 277.000 51.200 L 266.800 51.200 266.800 41.000 L 266.800 30.800 277.000 30.800 L 287.200 30.800 287.200 41.000 M52.200 31.894 C 44.606 34.995,35.957 44.285,36.005 49.291 C 36.008 49.571,36.614 48.416,37.352 46.725 C 40.370 39.814,45.514 34.984,53.000 32.032 C 54.100 31.598,54.730 31.243,54.400 31.242 C 54.070 31.242,53.080 31.535,52.200 31.894 M70.346 31.816 C 71.086 32.137,71.896 32.385,72.146 32.368 C 72.777 32.322,70.339 31.237,69.600 31.234 C 69.270 31.232,69.606 31.494,70.346 31.816 M93.999 32.700 C 94.522 33.415,95.013 34.000,95.089 34.000 C 95.393 34.000,94.401 32.500,93.745 31.967 C 93.313 31.616,93.410 31.896,93.999 32.700 M72.800 32.533 C 72.800 32.607,73.832 33.192,75.094 33.833 C 78.382 35.505,83.880 41.064,85.619 44.475 C 86.369 45.946,87.044 47.089,87.118 47.015 C 87.878 46.255,82.237 38.533,79.261 36.259 C 76.164 33.892,72.800 31.952,72.800 32.533 M61.100 33.082 C 61.595 33.178,62.405 33.178,62.900 33.082 C 63.395 32.987,62.990 32.909,62.000 32.909 C 61.010 32.909,60.605 32.987,61.100 33.082 M56.200 33.610 C 55.666 33.847,55.998 33.886,57.200 33.727 C 58.190 33.596,59.075 33.424,59.167 33.344 C 59.514 33.043,56.964 33.272,56.200 33.610 M64.833 33.344 C 64.925 33.424,65.810 33.596,66.800 33.727 C 68.002 33.886,68.334 33.847,67.800 33.610 C 67.036 33.272,64.486 33.043,64.833 33.344 M51.177 35.466 C 49.181 36.465,47.336 37.837,45.393 39.766 L 42.540 42.600 45.170 40.180 C 48.150 37.437,49.933 36.268,53.157 34.942 C 54.391 34.434,55.109 34.015,54.754 34.009 C 54.398 34.004,52.789 34.660,51.177 35.466 M70.887 34.960 C 75.621 36.907,80.851 41.379,82.753 45.108 C 83.228 46.039,83.714 46.800,83.833 46.800 C 84.426 46.800,81.650 42.599,79.785 40.673 C 76.679 37.466,71.162 33.995,69.200 34.013 C 68.870 34.016,69.629 34.442,70.887 34.960 M371.100 40.682 C 371.595 40.778,372.405 40.778,372.900 40.682 C 373.395 40.587,372.990 40.509,372.000 40.509 C 371.010 40.509,370.605 40.587,371.100 40.682 M41.508 44.100 C 40.633 45.449,39.848 47.056,40.287 46.600 C 40.848 46.017,42.498 43.200,42.279 43.200 C 42.176 43.200,41.829 43.605,41.508 44.100 M39.265 48.217 C 38.595 49.688,38.723 50.002,39.447 48.665 C 39.786 48.040,39.988 47.454,39.896 47.363 C 39.805 47.271,39.521 47.656,39.265 48.217 M84.028 47.400 C 84.028 47.620,84.286 48.250,84.600 48.800 C 84.914 49.350,85.172 49.620,85.172 49.400 C 85.172 49.180,84.914 48.550,84.600 48.000 C 84.286 47.450,84.028 47.180,84.028 47.400 M22.200 48.800 C 22.048 49.491,22.007 50.141,22.109 50.242 C 22.211 50.344,22.409 49.853,22.550 49.150 C 22.883 47.483,22.560 47.160,22.200 48.800 M88.048 50.400 C 88.064 51.675,89.129 54.537,89.164 53.400 C 89.177 52.960,88.929 51.880,88.612 51.000 C 88.165 49.760,88.038 49.625,88.048 50.400 M35.300 51.270 C 35.025 52.033,34.813 53.004,34.828 53.428 C 34.844 53.861,35.112 53.501,35.440 52.607 C 35.760 51.730,35.973 50.759,35.911 50.448 C 35.850 50.138,35.575 50.507,35.300 51.270 M85.504 51.400 C 85.881 53.440,85.889 61.362,85.516 63.200 C 85.248 64.519,85.263 64.508,85.785 63.000 C 86.532 60.840,86.539 54.326,85.797 51.800 C 85.323 50.190,85.266 50.112,85.504 51.400 M38.200 51.600 C 38.048 52.291,38.007 52.941,38.109 53.042 C 38.211 53.144,38.409 52.653,38.550 51.950 C 38.691 51.247,38.731 50.598,38.641 50.508 C 38.550 50.417,38.352 50.909,38.200 51.600 M100.493 52.800 C 100.493 53.570,100.575 53.885,100.676 53.500 C 100.776 53.115,100.776 52.485,100.676 52.100 C 100.575 51.715,100.493 52.030,100.493 52.800 M23.301 53.400 C 23.305 54.280,23.387 54.593,23.483 54.095 C 23.579 53.598,23.575 52.878,23.475 52.495 C 23.375 52.113,23.296 52.520,23.301 53.400 M37.676 57.000 C 37.639 59.183,37.848 61.387,38.207 62.600 C 38.532 63.700,38.681 63.970,38.538 63.200 C 38.396 62.430,38.157 59.910,38.008 57.600 L 37.736 53.400 37.676 57.000 M102.534 57.200 C 102.534 58.850,102.605 59.525,102.691 58.700 C 102.778 57.875,102.778 56.525,102.691 55.700 C 102.605 54.875,102.534 55.550,102.534 57.200 M21.314 57.400 C 21.317 58.500,21.395 58.903,21.487 58.295 C 21.579 57.686,21.577 56.786,21.482 56.295 C 21.387 55.803,21.311 56.300,21.314 57.400 M23.301 61.400 C 23.305 62.280,23.387 62.593,23.483 62.095 C 23.579 61.598,23.575 60.878,23.475 60.495 C 23.375 60.113,23.296 60.520,23.301 61.400 M34.843 61.400 C 34.853 61.840,35.118 62.830,35.432 63.600 L 36.004 65.000 35.765 63.400 C 35.489 61.545,34.812 60.079,34.843 61.400 M88.422 62.689 C 86.537 70.064,82.847 75.666,77.406 79.414 C 74.942 81.111,74.526 81.620,76.500 80.523 C 79.447 78.884,84.632 73.101,86.325 69.564 C 87.918 66.234,89.498 61.365,89.111 60.978 C 89.001 60.867,88.691 61.637,88.422 62.689 M253.542 64.102 C 253.708 64.268,273.364 64.358,297.222 64.302 L 340.600 64.200 296.920 64.000 C 272.896 63.890,253.376 63.936,253.542 64.102 M38.800 64.922 C 38.800 65.372,40.748 69.600,40.956 69.600 C 41.066 69.600,40.699 68.565,40.141 67.300 C 39.136 65.024,38.800 64.427,38.800 64.922 M101.429 65.829 C 101.281 66.415,101.238 66.972,101.332 67.066 C 101.427 67.160,101.624 66.758,101.771 66.171 C 101.919 65.585,101.962 65.028,101.868 64.934 C 101.773 64.840,101.576 65.242,101.429 65.829 M36.000 65.685 C 36.000 68.641,43.198 77.958,47.300 80.312 C 49.527 81.590,49.117 81.047,46.500 79.253 C 42.310 76.380,38.399 71.412,36.992 67.175 C 36.349 65.241,36.000 64.716,36.000 65.685 M83.681 67.809 C 83.202 68.794,82.894 69.600,82.997 69.600 C 83.268 69.600,84.884 66.351,84.703 66.170 C 84.619 66.086,84.159 66.824,83.681 67.809 M81.402 71.598 C 78.097 76.366,71.612 80.257,65.400 81.197 C 63.628 81.466,63.565 81.506,64.849 81.550 C 69.856 81.723,79.794 75.670,82.352 70.889 C 83.104 69.484,82.612 69.851,81.402 71.598 M42.727 72.297 C 45.998 76.891,54.594 81.729,59.151 81.540 C 60.496 81.484,60.514 81.468,59.400 81.314 C 53.751 80.533,48.925 78.132,44.853 74.079 C 43.233 72.465,42.276 71.664,42.727 72.297 M49.200 81.355 C 49.200 81.905,57.246 84.588,58.054 84.307 C 58.354 84.203,57.520 83.880,56.200 83.590 C 54.880 83.300,52.833 82.643,51.650 82.131 C 49.421 81.166,49.200 81.096,49.200 81.355 M72.200 82.163 C 71.100 82.656,69.120 83.298,67.800 83.589 C 66.480 83.879,65.646 84.203,65.946 84.307 C 66.754 84.588,74.800 81.905,74.800 81.355 C 74.800 81.075,74.228 81.253,72.200 82.163 M30.000 82.525 C 30.000 82.594,30.585 83.179,31.300 83.825 L 32.600 85.000 31.425 83.700 C 30.330 82.488,30.000 82.216,30.000 82.525 M60.700 84.689 C 61.415 84.778,62.585 84.778,63.300 84.689 C 64.015 84.601,63.430 84.528,62.000 84.528 C 60.570 84.528,59.985 84.601,60.700 84.689 M90.575 86.100 L 89.400 87.400 90.700 86.225 C 91.912 85.130,92.184 84.800,91.875 84.800 C 91.806 84.800,91.221 85.385,90.575 86.100 M85.400 90.250 C 84.681 90.862,84.534 91.105,85.033 90.857 C 85.766 90.493,87.141 89.176,86.749 89.214 C 86.667 89.222,86.060 89.688,85.400 90.250 M58.305 97.883 C 58.802 97.979,59.522 97.975,59.905 97.875 C 60.287 97.775,59.880 97.696,59.000 97.701 C 58.120 97.705,57.807 97.787,58.305 97.883 M64.305 97.883 C 64.802 97.979,65.522 97.975,65.905 97.875 C 66.287 97.775,65.880 97.696,65.000 97.701 C 64.120 97.705,63.807 97.787,64.305 97.883 M112.500 109.476 C 112.885 109.576,113.515 109.576,113.900 109.476 C 114.285 109.375,113.970 109.293,113.200 109.293 C 112.430 109.293,112.115 109.375,112.500 109.476 M117.715 110.696 C 118.988 110.776,120.968 110.775,122.115 110.694 C 123.262 110.614,122.220 110.549,119.800 110.550 C 117.380 110.551,116.442 110.616,117.715 110.696 M277.315 110.696 C 278.588 110.776,280.568 110.775,281.715 110.694 C 282.862 110.614,281.820 110.549,279.400 110.550 C 276.980 110.551,276.042 110.616,277.315 110.696 M127.233 111.344 C 127.325 111.423,127.940 111.608,128.600 111.756 C 129.476 111.952,129.638 111.915,129.200 111.618 C 128.660 111.253,126.832 110.998,127.233 111.344 M269.800 111.600 C 269.296 111.817,269.222 111.944,269.600 111.944 C 269.930 111.944,270.560 111.789,271.000 111.600 C 271.504 111.383,271.578 111.256,271.200 111.256 C 270.870 111.256,270.240 111.411,269.800 111.600 M148.200 120.800 C 149.728 122.340,151.069 123.600,151.179 123.600 C 151.289 123.600,150.128 122.340,148.600 120.800 C 147.072 119.260,145.731 118.000,145.621 118.000 C 145.511 118.000,146.672 119.260,148.200 120.800 M306.400 119.400 C 307.146 120.170,307.847 120.800,307.957 120.800 C 308.067 120.800,307.546 120.170,306.800 119.400 C 306.054 118.630,305.353 118.000,305.243 118.000 C 305.133 118.000,305.654 118.630,306.400 119.400 M91.789 122.100 L 89.000 125.000 91.900 122.211 C 94.594 119.620,94.983 119.200,94.689 119.200 C 94.628 119.200,93.323 120.505,91.789 122.100 M251.789 122.100 L 249.000 125.000 251.900 122.211 C 253.495 120.677,254.800 119.372,254.800 119.311 C 254.800 119.017,254.380 119.406,251.789 122.100 M306.400 121.800 C 307.595 123.010,308.663 124.000,308.773 124.000 C 308.883 124.000,307.995 123.010,306.800 121.800 C 305.605 120.590,304.537 119.600,304.427 119.600 C 304.317 119.600,305.205 120.590,306.400 121.800 M146.783 121.700 C 147.764 122.745,148.619 123.600,148.683 123.600 C 148.984 123.600,148.666 123.241,146.900 121.583 L 145.000 119.800 146.783 121.700 M308.400 121.325 C 308.400 121.394,308.985 121.979,309.700 122.625 L 311.000 123.800 309.825 122.500 C 308.730 121.288,308.400 121.016,308.400 121.325 M86.153 125.700 C 84.776 128.036,84.686 128.235,85.387 127.400 C 86.200 126.432,86.900 125.200,86.638 125.200 C 86.533 125.200,86.315 125.425,86.153 125.700 M199.491 134.289 C 200.201 134.377,201.461 134.379,202.291 134.292 C 203.121 134.205,202.540 134.133,201.000 134.131 C 199.460 134.129,198.781 134.200,199.491 134.289 M191.322 139.029 L 190.200 140.058 191.500 139.154 C 192.215 138.657,192.800 138.193,192.800 138.125 C 192.800 137.809,192.358 138.080,191.322 139.029 M157.044 140.200 C 157.373 141.671,157.602 141.990,157.594 140.967 C 157.591 140.545,157.405 139.930,157.182 139.600 C 156.885 139.162,156.848 139.324,157.044 140.200 M241.429 140.229 C 241.281 140.815,241.238 141.372,241.332 141.466 C 241.427 141.560,241.624 141.158,241.771 140.571 C 241.919 139.985,241.962 139.428,241.868 139.334 C 241.773 139.240,241.576 139.642,241.429 140.229 M239.293 142.800 C 239.293 143.570,239.375 143.885,239.476 143.500 C 239.576 143.115,239.576 142.485,239.476 142.100 C 239.375 141.715,239.293 142.030,239.293 142.800 M159.701 145.400 C 159.705 146.280,159.787 146.593,159.883 146.095 C 159.979 145.598,159.975 144.878,159.875 144.495 C 159.775 144.113,159.696 144.520,159.701 145.400 M80.550 149.000 C 80.551 151.420,80.616 152.358,80.696 151.085 C 80.776 149.812,80.775 147.832,80.694 146.685 C 80.614 145.538,80.549 146.580,80.550 149.000 M319.701 146.200 C 319.705 147.080,319.787 147.393,319.883 146.895 C 319.979 146.398,319.975 145.678,319.875 145.295 C 319.775 144.913,319.696 145.320,319.701 146.200 M240.550 149.400 C 240.551 151.820,240.616 152.758,240.696 151.485 C 240.776 150.212,240.775 148.232,240.694 147.085 C 240.614 145.938,240.549 146.980,240.550 149.400 M216.056 146.800 C 216.056 147.130,216.211 147.760,216.400 148.200 C 216.617 148.704,216.744 148.778,216.744 148.400 C 216.744 148.070,216.589 147.440,216.400 147.000 C 216.183 146.496,216.056 146.422,216.056 146.800 M185.449 147.415 C 185.312 147.773,185.215 148.366,185.234 148.733 C 185.253 149.100,185.427 148.869,185.621 148.220 C 185.998 146.958,185.865 146.333,185.449 147.415 M218.514 151.000 C 218.517 152.100,218.595 152.503,218.687 151.895 C 218.779 151.286,218.777 150.386,218.682 149.895 C 218.587 149.403,218.511 149.900,218.514 151.000 M132.122 151.029 L 131.000 152.058 132.300 151.154 C 133.015 150.657,133.600 150.193,133.600 150.125 C 133.600 149.809,133.158 150.080,132.122 151.029 M159.693 151.200 C 159.693 151.970,159.775 152.285,159.876 151.900 C 159.976 151.515,159.976 150.885,159.876 150.500 C 159.775 150.115,159.693 150.430,159.693 151.200 M319.693 152.400 C 319.693 153.170,319.775 153.485,319.876 153.100 C 319.976 152.715,319.976 152.085,319.876 151.700 C 319.775 151.315,319.693 151.630,319.693 152.400 M129.300 152.846 C 127.937 153.719,127.495 154.306,128.700 153.643 C 129.618 153.139,131.056 152.027,130.800 152.019 C 130.690 152.016,130.015 152.388,129.300 152.846 M185.206 153.433 C 185.209 153.855,185.395 154.470,185.618 154.800 C 185.915 155.238,185.952 155.076,185.756 154.200 C 185.427 152.729,185.198 152.410,185.206 153.433 M216.229 154.229 C 216.081 154.815,216.038 155.372,216.132 155.466 C 216.227 155.560,216.424 155.158,216.571 154.571 C 216.719 153.985,216.762 153.428,216.668 153.334 C 216.573 153.240,216.376 153.642,216.229 154.229 M157.246 155.667 C 157.221 156.034,157.096 156.664,156.970 157.067 C 156.752 157.762,156.763 157.763,157.197 157.087 C 157.448 156.696,157.573 156.066,157.473 155.687 C 157.311 155.068,157.288 155.066,157.246 155.667 M122.593 157.056 C 120.552 158.409,119.832 159.123,121.426 158.214 C 122.830 157.414,124.701 156.022,124.393 156.009 C 124.279 156.004,123.469 156.475,122.593 157.056 M317.246 156.867 C 317.221 157.234,317.096 157.864,316.970 158.267 C 316.752 158.962,316.763 158.963,317.197 158.287 C 317.448 157.896,317.573 157.266,317.473 156.887 C 317.311 156.268,317.288 156.266,317.246 156.867 M213.375 162.900 L 212.200 164.200 213.500 163.025 C 214.215 162.379,214.800 161.794,214.800 161.725 C 214.800 161.416,214.470 161.688,213.375 162.900 M313.681 167.009 C 313.202 167.994,312.894 168.800,312.997 168.800 C 313.268 168.800,314.884 165.551,314.703 165.370 C 314.619 165.286,314.159 166.024,313.681 167.009 M311.385 170.900 C 310.768 171.835,310.520 172.389,310.832 172.131 C 311.433 171.634,312.964 169.200,312.676 169.200 C 312.583 169.200,312.002 169.965,311.385 170.900 M151.999 171.700 C 151.410 172.504,151.313 172.784,151.745 172.433 C 152.401 171.900,153.393 170.400,153.089 170.400 C 153.013 170.400,152.522 170.985,151.999 171.700 M146.800 175.000 C 145.828 175.990,145.123 176.800,145.233 176.800 C 145.343 176.800,146.228 175.990,147.200 175.000 C 148.172 174.010,148.877 173.200,148.767 173.200 C 148.657 173.200,147.772 174.010,146.800 175.000 M90.000 176.600 C 91.195 177.810,92.263 178.800,92.373 178.800 C 92.483 178.800,91.595 177.810,90.400 176.600 C 89.205 175.390,88.137 174.400,88.027 174.400 C 87.917 174.400,88.805 175.390,90.000 176.600 M251.600 176.600 C 252.795 177.810,253.863 178.800,253.973 178.800 C 254.083 178.800,253.195 177.810,252.000 176.600 C 250.805 175.390,249.737 174.400,249.627 174.400 C 249.517 174.400,250.405 175.390,251.600 176.600 M249.200 176.600 C 249.946 177.370,250.647 178.000,250.757 178.000 C 250.867 178.000,250.346 177.370,249.600 176.600 C 248.854 175.830,248.153 175.200,248.043 175.200 C 247.933 175.200,248.454 175.830,249.200 176.600 M306.581 176.900 L 305.000 178.600 306.700 177.019 C 308.281 175.548,308.584 175.200,308.281 175.200 C 308.216 175.200,307.451 175.965,306.581 176.900 M307.785 178.100 L 305.800 180.200 307.900 178.215 C 309.851 176.371,310.183 176.000,309.885 176.000 C 309.822 176.000,308.877 176.945,307.785 178.100 M145.375 178.900 L 144.200 180.200 145.500 179.025 C 146.215 178.379,146.800 177.794,146.800 177.725 C 146.800 177.416,146.470 177.688,145.375 178.900 M251.200 178.525 C 251.200 178.594,251.785 179.179,252.500 179.825 L 253.800 181.000 252.625 179.700 C 251.530 178.488,251.200 178.216,251.200 178.525 M300.881 181.372 C 299.023 182.685,298.762 183.061,300.331 182.162 C 301.063 181.743,301.850 181.175,302.080 180.900 C 302.671 180.193,302.393 180.302,300.881 181.372 M296.800 183.800 C 295.810 184.330,295.142 184.772,295.316 184.782 C 295.741 184.806,298.800 183.234,298.800 182.992 C 298.800 182.727,298.817 182.720,296.800 183.800 M287.200 187.200 C 286.376 187.464,286.341 187.526,287.000 187.554 C 287.440 187.573,288.070 187.413,288.400 187.200 C 289.101 186.747,288.614 186.747,287.200 187.200 M109.600 187.600 C 110.968 188.038,112.019 188.038,111.000 187.600 C 110.560 187.411,109.840 187.262,109.400 187.268 C 108.757 187.277,108.796 187.343,109.600 187.600 M117.700 188.691 C 118.525 188.778,119.875 188.778,120.700 188.691 C 121.525 188.605,120.850 188.534,119.200 188.534 C 117.550 188.534,116.875 188.605,117.700 188.691 M275.505 189.883 C 276.002 189.979,276.722 189.975,277.105 189.875 C 277.487 189.775,277.080 189.696,276.200 189.701 C 275.320 189.705,275.007 189.787,275.505 189.883 M281.700 189.876 C 282.085 189.976,282.715 189.976,283.100 189.876 C 283.485 189.775,283.170 189.693,282.400 189.693 C 281.630 189.693,281.315 189.775,281.700 189.876 M200.100 190.687 C 200.705 190.778,201.695 190.778,202.300 190.687 C 202.905 190.595,202.410 190.520,201.200 190.520 C 199.990 190.520,199.495 190.595,200.100 190.687 M194.575 193.300 L 193.400 194.600 194.700 193.425 C 195.912 192.330,196.184 192.000,195.875 192.000 C 195.806 192.000,195.221 192.585,194.575 193.300 M206.000 192.125 C 206.000 192.194,206.585 192.779,207.300 193.425 L 208.600 194.600 207.425 193.300 C 206.330 192.088,206.000 191.816,206.000 192.125 M209.000 198.198 C 209.000 199.585,209.135 200.638,209.300 200.537 C 209.685 200.300,209.681 196.746,209.294 196.137 C 209.132 195.883,209.000 196.810,209.000 198.198 M192.509 198.400 C 192.509 199.390,192.587 199.795,192.682 199.300 C 192.778 198.805,192.778 197.995,192.682 197.500 C 192.587 197.005,192.509 197.410,192.509 198.400 M191.018 200.900 C 191.168 201.395,191.455 201.976,191.656 202.191 C 191.857 202.406,191.819 202.001,191.572 201.291 C 191.065 199.838,190.597 199.508,191.018 200.900 M206.975 203.700 L 205.800 205.000 207.100 203.825 C 207.815 203.179,208.400 202.594,208.400 202.525 C 208.400 202.216,208.070 202.488,206.975 203.700 M192.400 203.725 C 192.400 203.794,192.985 204.379,193.700 205.025 L 195.000 206.200 193.825 204.900 C 192.730 203.688,192.400 203.416,192.400 203.725 M62.184 242.000 C 62.184 251.570,62.236 255.485,62.300 250.700 C 62.363 245.915,62.363 238.085,62.300 233.300 C 62.236 228.515,62.184 232.430,62.184 242.000 M327.777 236.400 C 327.777 242.890,327.832 245.545,327.899 242.300 C 327.966 239.055,327.966 233.745,327.899 230.500 C 327.832 227.255,327.777 229.910,327.777 236.400 M129.532 226.700 C 165.685 226.756,224.725 226.756,260.732 226.700 C 296.740 226.644,267.160 226.598,195.000 226.598 C 122.840 226.598,93.380 226.644,129.532 226.700 M78.578 237.000 L 78.600 241.400 195.200 241.401 L 311.800 241.402 195.314 241.300 L 78.827 241.199 78.691 236.899 L 78.555 232.600 78.578 237.000 M332.400 234.867 C 332.400 235.123,332.510 235.224,332.644 235.089 C 332.778 234.955,333.585 235.285,334.436 235.823 C 335.287 236.360,336.123 236.797,336.292 236.792 C 336.620 236.784,332.942 234.400,332.601 234.400 C 332.491 234.400,332.400 234.610,332.400 234.867 M332.488 245.676 C 332.400 251.125,332.665 252.300,333.735 251.221 C 334.089 250.864,334.036 250.815,333.512 251.015 C 332.884 251.253,332.812 250.784,332.699 245.738 L 332.575 240.200 332.488 245.676 M352.514 243.000 C 352.517 244.100,352.595 244.503,352.687 243.895 C 352.779 243.286,352.777 242.386,352.682 241.895 C 352.587 241.403,352.511 241.900,352.514 243.000 M369.314 243.000 C 369.317 244.100,369.395 244.503,369.487 243.895 C 369.579 243.286,369.577 242.386,369.482 241.895 C 369.387 241.403,369.311 241.900,369.314 243.000 M346.102 242.806 C 346.708 243.281,347.085 243.862,346.940 244.097 C 346.784 244.349,346.866 244.407,347.138 244.238 C 347.878 243.781,347.686 243.420,346.300 242.658 L 345.000 241.943 346.102 242.806 M78.546 247.400 C 78.547 249.600,78.614 250.449,78.695 249.287 C 78.776 248.124,78.776 246.324,78.693 245.287 C 78.611 244.249,78.545 245.200,78.546 247.400 M360.305 252.683 C 360.802 252.779,361.522 252.775,361.905 252.675 C 362.287 252.575,361.880 252.496,361.000 252.501 C 360.120 252.505,359.807 252.587,360.305 252.683 M129.532 257.500 C 165.685 257.556,224.725 257.556,260.732 257.500 C 296.740 257.444,267.160 257.398,195.000 257.398 C 122.840 257.398,93.380 257.444,129.532 257.500 M62.183 265.700 C 62.077 265.975,62.040 273.850,62.100 283.200 L 62.209 300.200 62.304 282.901 L 62.400 265.601 195.100 265.500 L 327.800 265.399 195.087 265.299 C 89.213 265.220,62.336 265.301,62.183 265.700 M326.178 285.200 C 326.178 292.130,326.233 294.965,326.299 291.500 C 326.366 288.035,326.366 282.365,326.299 278.900 C 326.233 275.435,326.178 278.270,326.178 285.200 M76.485 273.480 L 78.369 273.643 78.508 276.921 L 78.647 280.200 78.623 276.800 L 78.600 273.400 76.600 273.359 L 74.600 273.318 76.485 273.480 M366.400 276.525 C 366.400 276.594,366.985 277.179,367.700 277.825 L 369.000 279.000 367.825 277.700 C 366.730 276.488,366.400 276.216,366.400 276.525 M355.123 277.900 C 354.418 278.721,353.890 279.600,354.101 279.600 C 354.183 279.600,354.649 279.060,355.137 278.400 C 356.101 277.096,356.092 276.772,355.123 277.900 M371.444 281.000 C 371.773 282.471,372.002 282.790,371.994 281.767 C 371.991 281.345,371.805 280.730,371.582 280.400 C 371.285 279.962,371.248 280.124,371.444 281.000 M332.154 286.000 C 332.154 288.750,332.218 289.875,332.296 288.500 C 332.374 287.125,332.374 284.875,332.296 283.500 C 332.218 282.125,332.154 283.250,332.154 286.000 M78.573 282.927 C 78.461 283.217,78.429 285.332,78.501 287.627 L 78.631 291.800 78.716 287.301 L 78.800 282.801 195.300 282.700 L 311.800 282.599 195.287 282.499 C 99.188 282.417,78.739 282.492,78.573 282.927 M371.646 284.067 C 371.621 284.434,371.496 285.064,371.370 285.467 C 371.152 286.162,371.163 286.163,371.597 285.487 C 371.848 285.096,371.973 284.466,371.873 284.087 C 371.711 283.468,371.688 283.466,371.646 284.067 M354.364 287.133 C 354.580 287.536,355.071 288.121,355.455 288.433 C 355.887 288.784,355.790 288.504,355.201 287.700 C 354.151 286.265,353.757 285.998,354.364 287.133 M354.000 289.400 C 354.746 290.170,355.447 290.800,355.557 290.800 C 355.667 290.800,355.146 290.170,354.400 289.400 C 353.654 288.630,352.953 288.000,352.843 288.000 C 352.733 288.000,353.254 288.630,354.000 289.400 M361.105 292.683 C 361.602 292.779,362.322 292.775,362.705 292.675 C 363.087 292.575,362.680 292.496,361.800 292.501 C 360.920 292.505,360.607 292.587,361.105 292.683 M129.732 298.300 C 165.775 298.356,224.635 298.356,260.532 298.300 C 296.430 298.244,266.940 298.198,195.000 298.198 C 123.060 298.198,93.690 298.244,129.732 298.300 M62.096 323.300 L 62.200 340.600 195.000 340.601 L 327.800 340.602 195.100 340.500 L 62.400 340.399 62.400 323.400 L 62.400 306.401 195.300 306.300 L 328.200 306.199 195.096 306.099 L 61.992 306.000 62.096 323.300 M326.181 323.400 C 326.181 331.760,326.234 335.237,326.299 331.126 C 326.364 327.016,326.364 320.176,326.300 315.926 C 326.235 311.677,326.182 315.040,326.181 323.400 M76.486 314.281 L 78.372 314.443 78.508 318.422 L 78.644 322.402 78.622 318.301 L 78.600 314.200 76.600 314.159 L 74.600 314.118 76.486 314.281 M331.043 315.833 C 330.668 316.810,330.778 317.079,331.234 316.297 C 331.563 315.731,331.814 315.677,332.521 316.019 C 333.369 316.429,333.373 316.422,332.624 315.822 C 331.645 315.038,331.347 315.040,331.043 315.833 M366.035 317.300 C 366.128 317.355,366.833 317.940,367.602 318.600 L 369.000 319.800 367.825 318.500 C 367.179 317.785,366.474 317.200,366.258 317.200 C 366.043 317.200,365.943 317.245,366.035 317.300 M354.676 319.300 C 353.430 320.533,353.425 320.549,354.581 319.603 C 355.252 319.055,355.971 318.470,356.180 318.303 C 356.389 318.136,356.431 318.000,356.274 318.000 C 356.117 318.000,355.398 318.585,354.676 319.300 M331.328 324.800 C 331.328 326.230,331.401 326.815,331.489 326.100 C 331.578 325.385,331.578 324.215,331.489 323.500 C 331.401 322.785,331.328 323.370,331.328 324.800 M345.340 323.751 C 345.772 324.099,345.954 324.550,345.778 324.835 C 345.585 325.147,345.643 325.221,345.938 325.038 C 346.649 324.599,346.490 324.072,345.500 323.592 C 344.659 323.185,344.649 323.195,345.340 323.751 M350.114 325.000 C 350.117 326.100,350.195 326.503,350.287 325.895 C 350.379 325.286,350.377 324.386,350.282 323.895 C 350.187 323.403,350.111 323.900,350.114 325.000 M370.501 325.000 C 370.505 325.880,370.587 326.193,370.683 325.695 C 370.779 325.198,370.775 324.478,370.675 324.095 C 370.575 323.713,370.496 324.120,370.501 325.000 M78.667 324.667 C 78.520 324.813,78.400 326.603,78.400 328.645 L 78.400 332.356 76.700 332.511 L 75.000 332.665 76.800 332.633 L 78.600 332.600 78.714 328.701 L 78.829 324.801 195.314 324.700 L 311.800 324.599 195.367 324.499 C 131.328 324.445,78.813 324.520,78.667 324.667 M331.246 329.876 C 331.221 331.018,331.338 332.038,331.507 332.143 C 331.676 332.247,331.757 331.583,331.686 330.666 C 331.479 327.975,331.296 327.647,331.246 329.876 M353.200 329.325 C 353.200 329.394,353.785 329.979,354.500 330.625 L 355.800 331.800 354.625 330.500 C 353.530 329.288,353.200 329.016,353.200 329.325 M365.800 330.668 C 364.920 331.457,364.560 331.916,365.000 331.688 C 365.741 331.304,367.951 329.179,367.570 329.217 C 367.476 329.226,366.680 329.879,365.800 330.668 M367.578 331.500 L 366.200 333.000 367.700 331.622 C 369.096 330.338,369.384 330.000,369.078 330.000 C 369.012 330.000,368.337 330.675,367.578 331.500 M359.500 334.682 C 359.995 334.778,360.805 334.778,361.300 334.682 C 361.795 334.587,361.390 334.509,360.400 334.509 C 359.410 334.509,359.005 334.587,359.500 334.682 M192.514 363.000 C 192.517 364.100,192.595 364.503,192.687 363.895 C 192.779 363.286,192.777 362.386,192.682 361.895 C 192.587 361.403,192.511 361.900,192.514 363.000 M209.314 363.000 C 209.317 364.100,209.395 364.503,209.487 363.895 C 209.579 363.286,209.577 362.386,209.482 361.895 C 209.387 361.403,209.311 361.900,209.314 363.000 M200.305 372.683 C 200.802 372.779,201.522 372.775,201.905 372.675 C 202.287 372.575,201.880 372.496,201.000 372.501 C 200.120 372.505,199.807 372.587,200.305 372.683 " stroke="none" fill="#747474" fill-rule="evenodd"></path><path id="path3" d="M59.300 16.697 C 60.785 16.774,63.215 16.774,64.700 16.697 C 66.185 16.620,64.970 16.557,62.000 16.557 C 59.030 16.557,57.815 16.620,59.300 16.697 M273.869 16.700 C 286.447 16.759,307.147 16.759,319.869 16.700 C 332.591 16.641,322.300 16.593,297.000 16.593 C 271.700 16.593,261.291 16.641,273.869 16.700 M70.033 17.344 C 70.125 17.423,70.740 17.608,71.400 17.756 C 72.276 17.952,72.438 17.915,72.000 17.618 C 71.460 17.253,69.632 16.998,70.033 17.344 M56.000 19.200 C 54.643 19.486,54.637 19.495,55.800 19.507 C 56.460 19.515,57.450 19.376,58.000 19.200 C 59.312 18.780,57.996 18.780,56.000 19.200 M66.000 19.180 C 66.999 19.520,69.482 19.732,69.167 19.451 C 69.075 19.369,68.100 19.199,67.000 19.072 C 65.651 18.916,65.326 18.951,66.000 19.180 M253.387 41.200 C 253.387 53.630,253.438 58.715,253.500 52.500 C 253.562 46.285,253.562 36.115,253.500 29.900 C 253.438 23.685,253.387 28.770,253.387 41.200 M340.587 41.200 C 340.587 53.630,340.638 58.715,340.700 52.500 C 340.762 46.285,340.762 36.115,340.700 29.900 C 340.638 23.685,340.587 28.770,340.587 41.200 M377.600 19.278 C 380.158 21.657,381.672 22.833,380.400 21.453 C 379.630 20.618,378.640 19.745,378.200 19.513 C 377.760 19.281,377.490 19.175,377.600 19.278 M363.447 21.601 C 362.651 22.482,362.000 23.328,362.000 23.481 C 362.000 23.635,362.135 23.589,362.301 23.380 C 362.467 23.171,363.222 22.325,363.980 21.500 C 364.737 20.675,365.253 20.000,365.125 20.000 C 364.997 20.000,364.242 20.721,363.447 21.601 M371.100 20.282 C 371.595 20.378,372.405 20.378,372.900 20.282 C 373.395 20.187,372.990 20.109,372.000 20.109 C 371.010 20.109,370.605 20.187,371.100 20.282 M378.394 23.003 C 379.987 24.921,380.121 25.045,379.686 24.196 C 379.459 23.753,378.852 23.034,378.337 22.598 C 377.433 21.834,377.435 21.848,378.394 23.003 M43.500 23.429 C 42.005 24.240,42.096 24.578,43.600 23.800 C 44.260 23.459,44.800 23.094,44.800 22.990 C 44.800 22.732,44.757 22.747,43.500 23.429 M85.000 23.765 C 85.660 24.332,86.365 24.797,86.567 24.798 C 87.001 24.800,86.996 24.796,85.200 23.637 L 83.800 22.734 85.000 23.765 M38.200 24.000 C 37.540 24.437,37.180 24.792,37.400 24.788 C 37.801 24.782,39.976 23.223,39.600 23.212 C 39.490 23.208,38.860 23.563,38.200 24.000 M33.871 27.700 L 31.334 30.200 33.767 28.027 C 35.105 26.832,36.371 25.707,36.580 25.527 C 36.789 25.347,36.836 25.200,36.684 25.200 C 36.532 25.200,35.266 26.325,33.871 27.700 M90.400 28.200 C 91.595 29.410,92.663 30.400,92.773 30.400 C 92.883 30.400,91.995 29.410,90.800 28.200 C 89.605 26.990,88.537 26.000,88.427 26.000 C 88.317 26.000,89.205 26.990,90.400 28.200 M383.000 29.400 C 383.000 31.228,383.135 32.640,383.300 32.538 C 383.465 32.436,383.600 31.024,383.600 29.400 C 383.600 27.776,383.465 26.364,383.300 26.262 C 383.135 26.160,383.000 27.572,383.000 29.400 M360.453 29.200 C 360.430 30.630,360.556 32.027,360.732 32.304 C 360.908 32.580,360.985 31.680,360.903 30.304 C 360.687 26.675,360.499 26.214,360.453 29.200 M264.584 28.899 C 264.476 29.179,264.436 34.807,264.494 41.404 L 264.600 53.400 277.000 53.400 L 289.400 53.400 289.400 41.000 L 289.400 28.600 277.090 28.494 C 267.402 28.411,264.738 28.497,264.584 28.899 M319.600 28.697 L 332.000 28.811 332.000 41.000 L 332.000 53.189 319.600 53.303 L 307.200 53.417 319.700 53.409 L 332.200 53.400 332.200 41.000 L 332.200 28.600 319.700 28.591 L 307.200 28.583 319.600 28.697 M88.000 28.925 C 88.000 28.994,88.585 29.579,89.300 30.225 L 90.600 31.400 89.425 30.100 C 88.330 28.888,88.000 28.616,88.000 28.925 M289.200 41.000 L 289.200 53.200 277.000 53.200 L 264.800 53.200 264.800 41.000 L 264.800 28.800 277.000 28.800 L 289.200 28.800 289.200 41.000 M52.758 31.112 C 43.944 34.743,36.302 43.062,35.039 50.400 C 34.748 52.089,35.114 51.369,36.425 47.668 C 39.164 39.934,45.523 34.066,54.464 31.021 C 56.079 30.471,56.950 30.021,56.400 30.022 C 55.850 30.023,54.211 30.513,52.758 31.112 M69.600 31.042 C 93.466 39.165,96.570 69.573,74.761 81.594 C 73.572 82.249,72.812 82.789,73.071 82.793 C 77.487 82.861,86.602 72.362,89.040 64.400 C 90.236 60.494,89.507 49.077,87.956 47.420 C 87.760 47.211,87.590 46.761,87.577 46.420 C 87.394 41.457,73.441 30.001,67.600 30.018 C 67.050 30.019,67.949 30.480,69.600 31.042 M309.374 41.000 C 309.375 46.720,309.431 49.004,309.499 46.076 C 309.568 43.148,309.567 38.468,309.499 35.676 C 309.430 32.884,309.374 35.280,309.374 41.000 M32.575 32.500 L 31.400 33.800 32.700 32.625 C 33.415 31.979,34.000 31.394,34.000 31.325 C 34.000 31.016,33.670 31.288,32.575 32.500 M91.517 33.000 C 94.010 36.132,94.444 36.576,93.276 34.800 C 92.626 33.810,91.677 32.640,91.168 32.200 C 90.549 31.665,90.665 31.930,91.517 33.000 M61.100 33.482 C 61.595 33.578,62.405 33.578,62.900 33.482 C 63.395 33.387,62.990 33.309,62.000 33.309 C 61.010 33.309,60.605 33.387,61.100 33.482 M56.064 34.073 C 53.256 34.701,54.390 34.829,57.422 34.227 C 58.950 33.923,59.660 33.678,59.000 33.680 C 58.340 33.683,57.019 33.860,56.064 34.073 M66.578 34.227 C 68.105 34.530,69.423 34.711,69.505 34.628 C 69.721 34.413,65.728 33.593,64.680 33.638 C 64.196 33.658,65.050 33.923,66.578 34.227 M362.317 35.800 C 362.545 36.240,363.332 37.140,364.066 37.799 L 365.400 38.998 364.001 37.399 C 363.232 36.520,362.445 35.620,362.252 35.400 C 362.060 35.180,362.089 35.360,362.317 35.800 M380.226 37.113 C 378.815 38.803,378.788 38.875,379.960 37.800 C 381.071 36.782,382.288 35.170,381.914 35.213 C 381.851 35.220,381.092 36.075,380.226 37.113 M49.238 37.100 C 30.429 48.193,37.283 79.146,58.967 81.030 C 60.606 81.173,60.360 81.063,57.697 80.463 C 36.534 75.695,31.350 47.685,49.700 37.249 C 51.658 36.136,52.370 35.600,51.891 35.600 C 51.831 35.600,50.637 36.275,49.238 37.100 M74.400 37.117 C 74.400 37.312,74.805 37.661,75.300 37.891 C 77.875 39.093,81.959 43.973,83.607 47.817 C 89.631 61.869,81.577 76.954,66.200 80.418 C 64.440 80.814,63.514 81.153,64.142 81.169 C 65.905 81.217,69.940 80.065,72.635 78.746 C 86.675 71.874,90.380 53.102,79.988 41.493 C 77.942 39.207,74.400 36.433,74.400 37.117 M371.300 38.676 C 371.685 38.776,372.315 38.776,372.700 38.676 C 373.085 38.575,372.770 38.493,372.000 38.493 C 371.230 38.493,370.915 38.575,371.300 38.676 M365.815 39.225 C 366.056 39.614,369.562 40.973,369.770 40.758 C 369.854 40.671,368.955 40.220,367.773 39.756 C 366.590 39.292,365.709 39.053,365.815 39.225 M376.000 39.832 C 374.790 40.351,374.070 40.777,374.400 40.779 C 375.111 40.783,378.400 39.336,378.400 39.020 C 378.400 38.899,378.355 38.820,378.300 38.845 C 378.245 38.869,377.210 39.314,376.000 39.832 M24.256 48.884 C 24.121 49.388,24.027 50.160,24.046 50.600 C 24.065 51.040,24.245 50.698,24.446 49.840 C 24.836 48.178,24.670 47.340,24.256 48.884 M99.256 48.400 C 99.256 48.730,99.411 49.360,99.600 49.800 C 99.817 50.304,99.944 50.378,99.944 50.000 C 99.944 49.670,99.789 49.040,99.600 48.600 C 99.383 48.096,99.256 48.022,99.256 48.400 M102.493 52.400 C 102.493 53.170,102.575 53.485,102.676 53.100 C 102.776 52.715,102.776 52.085,102.676 51.700 C 102.575 51.315,102.493 51.630,102.493 52.400 M21.293 52.800 C 21.293 53.570,21.375 53.885,21.476 53.500 C 21.576 53.115,21.576 52.485,21.476 52.100 C 21.375 51.715,21.293 52.030,21.293 52.800 M34.558 57.400 C 34.558 60.480,34.621 61.687,34.697 60.082 C 34.773 58.478,34.773 55.958,34.696 54.482 C 34.619 53.007,34.557 54.320,34.558 57.400 M100.524 57.400 C 100.526 58.720,100.601 59.212,100.690 58.493 C 100.779 57.774,100.777 56.694,100.686 56.093 C 100.595 55.492,100.522 56.080,100.524 57.400 M21.293 62.000 C 21.293 62.770,21.375 63.085,21.476 62.700 C 21.576 62.315,21.576 61.685,21.476 61.300 C 21.375 60.915,21.293 61.230,21.293 62.000 M102.233 63.233 C 102.083 64.366,102.041 65.374,102.139 65.472 C 102.237 65.571,102.445 64.728,102.600 63.600 C 102.755 62.472,102.798 61.464,102.694 61.361 C 102.591 61.258,102.384 62.100,102.233 63.233 M34.807 63.700 C 34.880 69.153,46.552 82.883,51.038 82.793 C 51.237 82.789,50.428 82.249,49.239 81.594 C 42.813 78.052,38.285 72.651,35.953 65.749 C 35.112 63.260,34.793 62.689,34.807 63.700 M99.429 65.429 C 99.281 66.015,99.238 66.572,99.332 66.666 C 99.427 66.760,99.624 66.358,99.771 65.771 C 99.919 65.185,99.962 64.628,99.868 64.534 C 99.773 64.440,99.576 64.842,99.429 65.429 M274.331 66.300 C 286.943 66.359,307.463 66.359,319.931 66.300 C 332.399 66.241,322.080 66.193,297.000 66.193 C 271.920 66.193,261.719 66.241,274.331 66.300 M24.218 73.300 C 24.368 73.795,24.655 74.376,24.856 74.591 C 25.057 74.806,25.019 74.401,24.772 73.691 C 24.265 72.238,23.797 71.908,24.218 73.300 M27.877 80.031 C 28.275 80.708,28.856 81.473,29.168 81.731 C 29.480 81.989,29.232 81.435,28.615 80.500 C 27.320 78.537,26.809 78.212,27.877 80.031 M34.600 84.400 C 36.128 85.940,37.469 87.200,37.579 87.200 C 37.689 87.200,36.528 85.940,35.000 84.400 C 33.472 82.860,32.131 81.600,32.021 81.600 C 31.911 81.600,33.072 82.860,34.600 84.400 M88.800 84.514 C 87.150 86.110,85.170 87.918,84.400 88.533 C 83.199 89.493,83.259 89.476,84.823 88.413 C 86.445 87.311,92.468 81.590,91.989 81.606 C 91.885 81.610,90.450 82.918,88.800 84.514 M53.200 83.655 C 54.190 84.130,55.810 84.572,56.800 84.637 C 57.790 84.701,58.150 84.662,57.600 84.549 C 56.725 84.370,54.914 83.862,52.200 83.034 C 51.760 82.900,52.210 83.179,53.200 83.655 M71.492 83.041 C 71.360 83.174,70.025 83.613,68.526 84.017 C 67.026 84.421,66.263 84.763,66.829 84.776 C 67.955 84.802,71.573 83.701,72.180 83.147 C 72.418 82.930,72.405 82.800,72.147 82.800 C 71.919 82.800,71.625 82.909,71.492 83.041 M38.144 87.509 C 38.460 88.021,40.800 89.753,40.800 89.475 C 40.800 89.376,40.139 88.791,39.332 88.175 C 38.524 87.559,37.989 87.259,38.144 87.509 M42.000 92.997 C 42.000 93.268,45.249 94.884,45.430 94.703 C 45.514 94.619,44.776 94.159,43.791 93.681 C 42.806 93.202,42.000 92.894,42.000 92.997 M57.000 95.606 C 58.601 95.954,61.881 96.131,61.567 95.852 C 61.475 95.771,60.050 95.604,58.400 95.481 C 56.176 95.316,55.814 95.348,57.000 95.606 M63.305 95.887 C 63.914 95.979,64.814 95.977,65.305 95.882 C 65.797 95.787,65.300 95.711,64.200 95.714 C 63.100 95.717,62.697 95.795,63.305 95.887 M52.400 97.194 C 52.730 97.411,53.435 97.591,53.967 97.594 C 55.251 97.602,54.925 97.375,53.200 97.058 C 52.215 96.877,51.978 96.918,52.400 97.194 M70.200 97.200 C 69.093 97.482,69.077 97.509,70.000 97.547 C 70.550 97.569,71.270 97.413,71.600 97.200 C 72.281 96.760,71.929 96.760,70.200 97.200 M60.100 98.294 C 61.145 98.376,62.855 98.376,63.900 98.294 C 64.945 98.212,64.090 98.144,62.000 98.144 C 59.910 98.144,59.055 98.212,60.100 98.294 M116.900 108.697 C 118.385 108.774,120.815 108.774,122.300 108.697 C 123.785 108.620,122.570 108.557,119.600 108.557 C 116.630 108.557,115.415 108.620,116.900 108.697 M276.917 108.697 C 278.411 108.774,280.751 108.774,282.117 108.696 C 283.482 108.618,282.260 108.555,279.400 108.555 C 276.540 108.556,275.422 108.620,276.917 108.697 M109.600 109.618 C 109.162 109.915,109.324 109.952,110.200 109.756 C 111.671 109.427,111.990 109.198,110.967 109.206 C 110.545 109.209,109.930 109.395,109.600 109.618 M128.600 109.600 C 129.040 109.789,129.670 109.944,130.000 109.944 C 130.378 109.944,130.304 109.817,129.800 109.600 C 129.360 109.411,128.730 109.256,128.400 109.256 C 128.022 109.256,128.096 109.383,128.600 109.600 M269.400 109.600 C 268.896 109.817,268.822 109.944,269.200 109.944 C 269.530 109.944,270.160 109.789,270.600 109.600 C 271.104 109.383,271.178 109.256,270.800 109.256 C 270.470 109.256,269.840 109.411,269.400 109.600 M288.200 109.600 C 288.640 109.789,289.270 109.944,289.600 109.944 C 289.978 109.944,289.904 109.817,289.400 109.600 C 288.960 109.411,288.330 109.256,288.000 109.256 C 287.622 109.256,287.696 109.383,288.200 109.600 M113.600 111.200 C 112.250 111.484,112.243 111.495,113.400 111.500 C 114.060 111.503,115.140 111.368,115.800 111.200 C 117.460 110.778,115.607 110.778,113.600 111.200 M123.600 111.180 C 124.599 111.520,127.082 111.732,126.767 111.451 C 126.675 111.369,125.700 111.199,124.600 111.072 C 123.251 110.916,122.926 110.951,123.600 111.180 M273.600 111.200 C 272.243 111.486,272.237 111.495,273.400 111.507 C 274.060 111.515,275.050 111.376,275.600 111.200 C 276.912 110.780,275.596 110.780,273.600 111.200 M283.200 111.180 C 284.199 111.520,286.682 111.732,286.367 111.451 C 286.275 111.369,285.300 111.199,284.200 111.072 C 282.851 110.916,282.526 110.951,283.200 111.180 M258.500 116.846 C 257.137 117.719,256.695 118.306,257.900 117.643 C 258.818 117.139,260.256 116.027,260.000 116.019 C 259.890 116.016,259.215 116.388,258.500 116.846 M303.200 116.114 C 303.200 116.218,304.228 117.180,305.484 118.251 C 306.740 119.323,307.639 119.991,307.483 119.736 C 307.139 119.177,303.200 115.846,303.200 116.114 M147.800 120.000 C 149.328 121.540,150.669 122.800,150.779 122.800 C 150.889 122.800,149.728 121.540,148.200 120.000 C 146.672 118.460,145.331 117.200,145.221 117.200 C 145.111 117.200,146.272 118.460,147.800 120.000 M301.200 117.746 C 301.200 117.856,301.740 118.330,302.400 118.800 C 303.060 119.270,303.600 119.564,303.600 119.454 C 303.600 119.344,303.060 118.870,302.400 118.400 C 301.740 117.930,301.200 117.636,301.200 117.746 M143.600 119.261 C 145.812 121.467,149.210 124.376,147.800 122.856 C 146.920 121.908,145.480 120.577,144.600 119.897 C 143.720 119.218,143.270 118.932,143.600 119.261 M252.012 122.188 C 250.379 123.832,249.124 125.227,249.222 125.288 C 249.320 125.350,250.764 124.005,252.432 122.300 C 254.099 120.595,255.355 119.200,255.222 119.200 C 255.089 119.200,253.644 120.545,252.012 122.188 M91.811 122.389 C 90.289 123.922,89.124 125.231,89.222 125.297 C 89.320 125.363,90.647 124.108,92.171 122.508 C 95.701 118.803,95.452 118.720,91.811 122.389 M306.417 122.215 C 307.617 123.543,308.682 124.571,308.781 124.500 C 308.881 124.429,307.898 123.343,306.598 122.086 L 304.233 119.800 306.417 122.215 M312.103 125.310 C 312.816 126.251,313.729 127.466,314.130 128.010 C 314.852 128.988,314.852 128.985,314.170 127.800 C 313.024 125.811,311.419 123.618,311.103 123.609 C 310.939 123.604,311.389 124.370,312.103 125.310 M310.000 126.400 C 310.470 127.060,310.944 127.600,311.054 127.600 C 311.164 127.600,310.870 127.060,310.400 126.400 C 309.930 125.740,309.456 125.200,309.346 125.200 C 309.236 125.200,309.530 125.740,310.000 126.400 M247.353 127.700 C 245.976 130.036,245.886 130.235,246.587 129.400 C 247.400 128.432,248.100 127.200,247.838 127.200 C 247.733 127.200,247.515 127.425,247.353 127.700 M108.540 135.600 C 108.540 137.470,108.609 138.235,108.693 137.300 C 108.777 136.365,108.777 134.835,108.693 133.900 C 108.609 132.965,108.540 133.730,108.540 135.600 M262.585 132.896 C 262.478 133.173,262.438 141.050,262.496 150.400 L 262.600 167.400 280.200 167.406 L 297.800 167.413 280.300 167.302 L 262.800 167.192 262.800 149.996 L 262.800 132.800 279.967 132.800 C 291.291 132.800,297.203 132.940,297.337 133.210 C 297.449 133.436,297.494 133.391,297.437 133.110 C 297.286 132.366,262.869 132.154,262.585 132.896 M114.600 134.607 C 115.040 134.966,115.760 135.435,116.200 135.651 L 117.000 136.044 116.200 135.393 C 115.760 135.034,115.040 134.565,114.600 134.349 L 113.800 133.956 114.600 134.607 M199.907 136.290 C 200.626 136.379,201.706 136.377,202.307 136.286 C 202.908 136.195,202.320 136.122,201.000 136.124 C 199.680 136.126,199.188 136.201,199.907 136.290 M79.429 139.429 C 79.281 140.015,79.238 140.572,79.332 140.666 C 79.427 140.760,79.624 140.358,79.771 139.771 C 79.919 139.185,79.962 138.628,79.868 138.534 C 79.773 138.440,79.576 138.842,79.429 139.429 M156.406 139.033 C 156.409 139.455,156.595 140.070,156.818 140.400 C 157.115 140.838,157.152 140.676,156.956 139.800 C 156.627 138.329,156.398 138.010,156.406 139.033 M159.044 139.800 C 159.373 141.271,159.602 141.590,159.594 140.567 C 159.591 140.145,159.405 139.530,159.182 139.200 C 158.885 138.762,158.848 138.924,159.044 139.800 M239.429 139.829 C 239.281 140.415,239.238 140.972,239.332 141.066 C 239.427 141.160,239.624 140.758,239.771 140.171 C 239.919 139.585,239.962 139.028,239.868 138.934 C 239.773 138.840,239.576 139.242,239.429 139.829 M316.406 139.833 C 316.409 140.255,316.595 140.870,316.818 141.200 C 317.115 141.638,317.152 141.476,316.956 140.600 C 316.627 139.129,316.398 138.810,316.406 139.833 M108.124 141.800 C 108.126 143.120,108.201 143.612,108.290 142.893 C 108.379 142.174,108.377 141.094,108.286 140.493 C 108.195 139.892,108.122 140.480,108.124 141.800 M319.044 140.600 C 319.373 142.071,319.602 142.390,319.594 141.367 C 319.591 140.945,319.405 140.330,319.182 140.000 C 318.885 139.562,318.848 139.724,319.044 140.600 M123.800 140.607 C 124.240 140.966,124.960 141.435,125.400 141.651 L 126.200 142.044 125.400 141.393 C 124.960 141.034,124.240 140.565,123.800 140.349 L 123.000 139.956 123.800 140.607 M215.663 141.600 C 216.151 142.260,216.617 142.800,216.698 142.800 C 216.779 142.800,216.526 142.260,216.136 141.600 C 215.746 140.940,215.281 140.400,215.102 140.400 C 214.923 140.400,215.175 140.940,215.663 141.600 M81.055 143.855 C 80.913 144.886,80.874 145.808,80.969 145.902 C 81.063 145.996,81.265 145.239,81.418 144.218 C 81.571 143.198,81.610 142.276,81.504 142.171 C 81.398 142.065,81.196 142.823,81.055 143.855 M241.055 144.255 C 240.913 145.286,240.874 146.208,240.969 146.302 C 241.063 146.396,241.265 145.639,241.418 144.618 C 241.571 143.598,241.610 142.676,241.504 142.571 C 241.398 142.465,241.196 143.223,241.055 144.255 M78.555 149.000 C 78.556 151.860,78.620 152.978,78.697 151.483 C 78.774 149.989,78.774 147.649,78.696 146.283 C 78.618 144.918,78.555 146.140,78.555 149.000 M238.555 149.400 C 238.556 152.260,238.620 153.378,238.697 151.883 C 238.774 150.389,238.774 148.049,238.696 146.683 C 238.618 145.318,238.555 146.540,238.555 149.400 M157.744 148.400 C 157.744 150.490,157.812 151.345,157.894 150.300 C 157.976 149.255,157.976 147.545,157.894 146.500 C 157.812 145.455,157.744 146.310,157.744 148.400 M131.800 145.807 C 132.240 146.166,132.960 146.635,133.400 146.851 L 134.200 147.244 133.400 146.593 C 132.960 146.234,132.240 145.765,131.800 145.549 L 131.000 145.156 131.800 145.807 M160.140 148.400 C 160.140 150.270,160.209 151.035,160.293 150.100 C 160.377 149.165,160.377 147.635,160.293 146.700 C 160.209 145.765,160.140 146.530,160.140 148.400 M317.709 147.200 C 317.709 148.190,317.787 148.595,317.882 148.100 C 317.978 147.605,317.978 146.795,317.882 146.300 C 317.787 145.805,317.709 146.210,317.709 147.200 M320.142 149.400 C 320.141 151.380,320.208 152.240,320.292 151.312 C 320.376 150.384,320.377 148.764,320.295 147.712 C 320.212 146.660,320.143 147.420,320.142 149.400 M183.449 147.015 C 183.312 147.373,183.215 147.966,183.234 148.333 C 183.253 148.700,183.427 148.469,183.621 147.820 C 183.998 146.558,183.865 145.933,183.449 147.015 M216.501 151.000 C 216.505 151.880,216.587 152.193,216.683 151.695 C 216.779 151.198,216.775 150.478,216.675 150.095 C 216.575 149.713,216.496 150.120,216.501 151.000 M317.714 151.400 C 317.717 152.500,317.795 152.903,317.887 152.295 C 317.979 151.686,317.977 150.786,317.882 150.295 C 317.787 149.803,317.711 150.300,317.714 151.400 M81.072 153.800 C 81.199 154.900,81.369 155.875,81.451 155.967 C 81.732 156.282,81.520 153.799,81.180 152.800 C 80.951 152.126,80.916 152.451,81.072 153.800 M108.537 155.400 C 108.539 157.160,108.609 157.830,108.693 156.889 C 108.778 155.949,108.777 154.509,108.691 153.689 C 108.605 152.870,108.536 153.640,108.537 155.400 M241.072 154.200 C 241.199 155.300,241.369 156.275,241.451 156.367 C 241.732 156.682,241.520 154.199,241.180 153.200 C 240.951 152.526,240.916 152.851,241.072 154.200 M183.206 153.833 C 183.209 154.255,183.395 154.870,183.618 155.200 C 183.915 155.638,183.952 155.476,183.756 154.600 C 183.427 153.129,183.198 152.810,183.206 153.833 M123.900 156.629 C 123.075 157.170,122.400 157.709,122.400 157.828 C 122.400 158.131,124.771 156.708,125.280 156.100 C 125.858 155.409,125.631 155.496,123.900 156.629 M159.246 156.067 C 159.221 156.434,159.096 157.064,158.970 157.467 C 158.752 158.162,158.763 158.163,159.197 157.487 C 159.448 157.096,159.573 156.466,159.473 156.087 C 159.311 155.468,159.288 155.466,159.246 156.067 M156.649 156.615 C 156.512 156.973,156.415 157.566,156.434 157.933 C 156.453 158.300,156.627 158.069,156.821 157.420 C 157.198 156.158,157.065 155.533,156.649 156.615 M79.206 157.433 C 79.209 157.855,79.395 158.470,79.618 158.800 C 79.915 159.238,79.952 159.076,79.756 158.200 C 79.427 156.729,79.198 156.410,79.206 157.433 M319.246 157.267 C 319.221 157.634,319.096 158.264,318.970 158.667 C 318.752 159.362,318.763 159.363,319.197 158.687 C 319.448 158.296,319.573 157.666,319.473 157.287 C 319.311 156.668,319.288 156.666,319.246 157.267 M316.649 157.815 C 316.512 158.173,316.415 158.766,316.434 159.133 C 316.453 159.500,316.627 159.269,316.821 158.620 C 317.198 157.358,317.065 156.733,316.649 157.815 M239.256 158.000 C 239.256 158.330,239.411 158.960,239.600 159.400 C 239.817 159.904,239.944 159.978,239.944 159.600 C 239.944 159.270,239.789 158.640,239.600 158.200 C 239.383 157.696,239.256 157.622,239.256 158.000 M120.500 158.846 C 119.137 159.719,118.695 160.306,119.900 159.643 C 120.818 159.139,122.256 158.027,122.000 158.019 C 121.890 158.016,121.215 158.388,120.500 158.846 M215.814 160.235 C 215.441 160.804,215.205 161.338,215.289 161.422 C 215.373 161.507,215.758 161.041,216.144 160.388 C 217.006 158.928,216.748 158.809,215.814 160.235 M108.528 162.800 C 108.528 164.230,108.601 164.815,108.689 164.100 C 108.778 163.385,108.778 162.215,108.689 161.500 C 108.601 160.785,108.528 161.370,108.528 162.800 M115.487 162.168 C 113.126 163.802,112.564 164.375,114.306 163.372 C 115.650 162.599,117.956 160.823,117.600 160.836 C 117.490 160.841,116.539 161.440,115.487 162.168 M192.600 163.556 C 192.820 163.777,193.720 164.257,194.600 164.621 C 196.690 165.487,196.113 164.901,193.905 163.915 C 192.967 163.496,192.380 163.335,192.600 163.556 M208.000 164.000 C 207.230 164.422,206.744 164.774,206.920 164.783 C 207.344 164.805,209.600 163.632,209.600 163.390 C 209.600 163.128,209.577 163.137,208.000 164.000 M190.400 165.000 C 191.145 165.550,191.855 165.999,191.978 165.998 C 192.355 165.995,189.824 164.030,189.422 164.014 C 189.215 164.006,189.655 164.450,190.400 165.000 M197.600 165.580 C 198.599 165.920,201.082 166.132,200.767 165.851 C 200.675 165.769,199.700 165.599,198.600 165.472 C 197.251 165.316,196.926 165.351,197.600 165.580 M202.400 165.600 C 201.043 165.886,201.037 165.895,202.200 165.907 C 202.860 165.915,203.850 165.776,204.400 165.600 C 205.712 165.180,204.396 165.180,202.400 165.600 M150.608 170.042 C 149.801 171.165,149.332 171.965,149.566 171.821 C 150.052 171.520,152.532 168.000,152.257 168.000 C 152.157 168.000,151.415 168.919,150.608 170.042 M199.907 168.290 C 200.626 168.379,201.706 168.377,202.307 168.286 C 202.908 168.195,202.320 168.122,201.000 168.124 C 199.680 168.126,199.188 168.201,199.907 168.290 M248.400 172.400 C 248.870 173.060,249.344 173.600,249.454 173.600 C 249.564 173.600,249.270 173.060,248.800 172.400 C 248.330 171.740,247.856 171.200,247.746 171.200 C 247.636 171.200,247.930 171.740,248.400 172.400 M87.098 173.800 C 87.778 174.680,89.200 176.210,90.257 177.200 C 91.731 178.579,91.582 178.346,89.617 176.200 C 86.100 172.358,85.663 171.941,87.098 173.800 M145.600 175.703 C 143.730 177.502,142.740 178.588,143.400 178.118 C 144.591 177.267,149.547 172.386,149.187 172.416 C 149.084 172.424,147.470 173.904,145.600 175.703 M311.599 174.100 C 311.010 174.904,310.913 175.184,311.345 174.833 C 312.001 174.300,312.993 172.800,312.689 172.800 C 312.613 172.800,312.122 173.385,311.599 174.100 M252.086 176.598 C 253.343 177.898,254.429 178.881,254.500 178.781 C 254.571 178.682,253.543 177.617,252.215 176.417 L 249.800 174.233 252.086 176.598 M247.600 175.325 C 247.600 175.394,248.185 175.979,248.900 176.625 L 250.200 177.800 249.025 176.500 C 247.930 175.288,247.600 175.016,247.600 175.325 M306.378 176.700 L 305.000 178.200 306.500 176.822 C 307.896 175.538,308.184 175.200,307.878 175.200 C 307.812 175.200,307.137 175.875,306.378 176.700 M307.988 178.300 L 305.400 181.000 308.100 178.412 C 309.585 176.988,310.800 175.773,310.800 175.712 C 310.800 175.417,310.393 175.792,307.988 178.300 M95.967 178.945 C 96.500 179.601,98.000 180.593,98.000 180.289 C 98.000 180.213,97.415 179.722,96.700 179.199 C 95.896 178.610,95.616 178.513,95.967 178.945 M143.000 181.012 C 141.435 182.295,141.857 182.286,143.600 181.000 C 144.345 180.450,144.785 180.006,144.578 180.014 C 144.370 180.022,143.660 180.471,143.000 181.012 M253.613 181.100 C 253.619 181.265,254.114 181.746,254.713 182.168 L 255.800 182.936 254.830 181.868 C 253.811 180.746,253.592 180.607,253.613 181.100 M299.300 182.046 C 297.937 182.919,297.495 183.506,298.700 182.843 C 299.618 182.339,301.056 181.227,300.800 181.219 C 300.690 181.216,300.015 181.588,299.300 182.046 M256.600 183.407 C 257.040 183.766,257.760 184.235,258.200 184.451 L 259.000 184.844 258.200 184.193 C 257.760 183.834,257.040 183.365,256.600 183.149 L 255.800 182.756 256.600 183.407 M110.200 185.600 C 110.640 185.789,111.270 185.944,111.600 185.944 C 111.978 185.944,111.904 185.817,111.400 185.600 C 110.960 185.411,110.330 185.256,110.000 185.256 C 109.622 185.256,109.696 185.383,110.200 185.600 M126.600 185.600 C 126.096 185.817,126.022 185.944,126.400 185.944 C 126.730 185.944,127.360 185.789,127.800 185.600 C 128.304 185.383,128.378 185.256,128.000 185.256 C 127.670 185.256,127.040 185.411,126.600 185.600 M117.907 186.690 C 118.626 186.779,119.706 186.777,120.307 186.686 C 120.908 186.595,120.320 186.522,119.000 186.524 C 117.680 186.526,117.188 186.601,117.907 186.690 M269.233 186.544 C 269.325 186.623,269.940 186.808,270.600 186.956 C 271.476 187.152,271.638 187.115,271.200 186.818 C 270.660 186.453,268.832 186.198,269.233 186.544 M287.600 186.818 C 287.162 187.115,287.324 187.152,288.200 186.956 C 289.671 186.627,289.990 186.398,288.967 186.406 C 288.545 186.409,287.930 186.595,287.600 186.818 M274.200 187.589 C 275.416 187.909,279.073 188.122,278.767 187.855 C 278.675 187.775,277.340 187.611,275.800 187.491 C 274.102 187.359,273.472 187.398,274.200 187.589 M280.505 187.887 C 281.114 187.979,282.014 187.977,282.505 187.882 C 282.997 187.787,282.500 187.711,281.400 187.714 C 280.300 187.717,279.897 187.795,280.505 187.887 M111.800 188.400 C 112.460 188.568,113.540 188.706,114.200 188.707 C 115.209 188.708,115.145 188.655,113.800 188.377 C 111.774 187.958,110.137 187.977,111.800 188.400 M124.000 188.400 C 122.650 188.684,122.643 188.695,123.800 188.700 C 124.460 188.703,125.540 188.568,126.200 188.400 C 127.860 187.978,126.007 187.978,124.000 188.400 M198.096 188.732 C 197.820 188.908,198.720 188.985,200.096 188.903 C 203.725 188.687,204.186 188.499,201.200 188.453 C 199.770 188.430,198.373 188.556,198.096 188.732 M270.000 189.182 C 270.330 189.405,270.945 189.591,271.367 189.594 C 272.390 189.602,272.071 189.373,270.600 189.044 C 269.724 188.848,269.562 188.885,270.000 189.182 M287.600 189.200 C 286.776 189.464,286.741 189.526,287.400 189.554 C 287.840 189.573,288.470 189.413,288.800 189.200 C 289.501 188.747,289.014 188.747,287.600 189.200 M277.712 190.295 C 278.764 190.377,280.384 190.376,281.312 190.292 C 282.240 190.208,281.380 190.141,279.400 190.142 C 277.420 190.143,276.660 190.212,277.712 190.295 M195.476 192.900 C 194.230 194.133,194.225 194.149,195.381 193.203 C 196.052 192.655,196.771 192.070,196.980 191.903 C 197.189 191.736,197.231 191.600,197.074 191.600 C 196.917 191.600,196.198 192.185,195.476 192.900 M205.000 191.854 C 205.220 192.048,206.029 192.745,206.799 193.403 L 208.197 194.600 207.199 193.463 C 206.649 192.838,205.840 192.141,205.400 191.914 C 204.960 191.688,204.780 191.661,205.000 191.854 M209.215 192.200 C 209.217 192.420,209.586 193.050,210.036 193.600 C 210.579 194.264,210.715 194.331,210.440 193.800 C 209.766 192.495,209.212 191.772,209.215 192.200 M208.467 196.020 C 208.701 196.692,208.967 197.167,209.057 197.076 C 209.256 196.878,208.501 194.800,208.231 194.800 C 208.127 194.800,208.233 195.349,208.467 196.020 M190.643 195.833 C 190.304 196.715,190.350 200.502,190.706 201.062 C 190.868 201.316,191.000 200.101,191.000 198.362 C 191.000 194.921,190.998 194.907,190.643 195.833 M211.000 198.400 C 211.000 200.118,211.132 201.316,211.294 201.062 C 211.675 200.462,211.675 196.338,211.294 195.738 C 211.132 195.484,211.000 196.682,211.000 198.400 M208.467 200.780 C 208.233 201.451,208.127 202.000,208.231 202.000 C 208.501 202.000,209.256 199.922,209.057 199.724 C 208.967 199.633,208.701 200.108,208.467 200.780 M210.400 202.342 C 210.400 202.604,209.635 203.668,208.700 204.707 C 207.765 205.745,207.360 206.326,207.800 205.998 C 209.284 204.889,211.039 202.506,210.654 202.121 C 210.514 201.981,210.400 202.081,210.400 202.342 M193.200 205.000 C 193.946 205.770,194.647 206.400,194.757 206.400 C 194.867 206.400,194.346 205.770,193.600 205.000 C 192.854 204.230,192.153 203.600,192.043 203.600 C 191.933 203.600,192.454 204.230,193.200 205.000 M198.600 205.600 C 199.040 205.789,199.760 205.938,200.200 205.932 C 200.843 205.923,200.804 205.857,200.000 205.600 C 198.632 205.162,197.581 205.162,198.600 205.600 M202.000 205.600 C 201.196 205.857,201.157 205.923,201.800 205.932 C 202.240 205.938,202.960 205.789,203.400 205.600 C 204.419 205.162,203.368 205.162,202.000 205.600 M200.105 208.287 C 200.714 208.379,201.614 208.377,202.105 208.282 C 202.597 208.187,202.100 208.111,201.000 208.114 C 199.900 208.117,199.497 208.195,200.105 208.287 M194.900 224.700 L 328.000 224.801 328.000 242.000 L 328.000 259.199 195.000 259.300 L 62.000 259.402 195.100 259.401 L 328.200 259.400 328.200 242.000 L 328.200 224.600 195.000 224.599 L 61.800 224.598 194.900 224.700 M64.182 242.000 C 64.182 250.470,64.235 253.935,64.299 249.700 C 64.364 245.465,64.364 238.535,64.299 234.300 C 64.235 230.065,64.182 233.530,64.182 242.000 M325.782 242.000 C 325.782 250.470,325.835 253.935,325.899 249.700 C 325.964 245.465,325.964 238.535,325.899 234.300 C 325.835 230.065,325.782 233.530,325.782 242.000 M74.580 232.909 C 74.472 233.189,74.433 237.464,74.492 242.409 L 74.600 251.400 76.800 251.438 L 79.000 251.476 76.900 251.317 L 74.800 251.158 74.800 242.000 L 74.800 232.842 76.900 232.695 L 79.000 232.548 76.887 232.474 C 75.489 232.425,74.709 232.572,74.580 232.909 M332.000 234.424 C 332.000 234.657,332.183 234.734,332.407 234.595 C 332.631 234.457,333.441 234.731,334.207 235.205 C 334.973 235.678,335.600 235.975,335.600 235.865 C 335.600 235.560,332.968 234.000,332.453 234.000 C 332.204 234.000,332.000 234.191,332.000 234.424 M57.359 245.200 C 57.359 248.390,57.421 249.695,57.497 248.100 C 57.573 246.505,57.573 243.895,57.497 242.300 C 57.421 240.705,57.359 242.010,57.359 245.200 M371.000 243.000 C 371.000 244.608,371.135 245.840,371.300 245.738 C 371.465 245.636,371.600 244.404,371.600 243.000 C 371.600 241.596,371.465 240.364,371.300 240.262 C 371.135 240.160,371.000 241.392,371.000 243.000 M343.800 240.996 C 344.694 241.739,347.228 243.109,346.600 242.510 C 346.380 242.300,345.480 241.724,344.600 241.230 C 343.720 240.735,343.360 240.630,343.800 240.996 M350.524 243.000 C 350.526 244.320,350.601 244.812,350.690 244.093 C 350.779 243.374,350.777 242.294,350.686 241.693 C 350.595 241.092,350.522 241.680,350.524 243.000 M312.032 242.299 L 312.000 243.199 195.300 243.300 L 78.600 243.401 195.313 243.501 C 319.459 243.606,312.985 243.694,312.269 241.913 C 312.156 241.631,312.049 241.805,312.032 242.299 M332.120 244.400 C 332.120 245.610,332.195 246.105,332.287 245.500 C 332.378 244.895,332.378 243.905,332.287 243.300 C 332.195 242.695,332.120 243.190,332.120 244.400 M347.522 243.268 C 347.963 243.831,347.932 244.001,347.322 244.356 C 346.925 244.587,346.803 244.781,347.051 244.788 C 348.014 244.814,348.446 243.734,347.705 243.153 C 347.072 242.657,347.054 242.669,347.522 243.268 M51.400 247.407 C 51.840 247.766,52.560 248.235,53.000 248.451 L 53.800 248.844 53.000 248.193 C 52.560 247.834,51.840 247.365,51.400 247.149 L 50.600 246.756 51.400 247.407 M351.914 248.200 C 352.141 248.640,352.838 249.449,353.463 249.999 L 354.600 250.997 353.403 249.599 C 351.507 247.382,351.480 247.358,351.914 248.200 M332.072 249.900 C 331.993 252.209,332.635 252.651,334.224 251.378 C 334.974 250.777,334.970 250.770,334.126 251.178 C 332.685 251.874,332.451 251.686,332.294 249.700 L 332.144 247.800 332.072 249.900 M368.575 249.700 L 367.400 251.000 368.700 249.825 C 369.415 249.179,370.000 248.594,370.000 248.525 C 370.000 248.216,369.670 248.488,368.575 249.700 M328.096 282.699 L 328.000 299.999 195.100 300.100 L 62.200 300.201 195.113 300.301 C 301.147 300.380,328.064 300.299,328.217 299.900 C 328.323 299.625,328.360 291.750,328.300 282.400 L 328.191 265.400 328.096 282.699 M64.182 267.701 C 64.077 267.977,64.040 274.952,64.100 283.201 L 64.210 298.200 64.305 282.901 L 64.400 267.601 194.900 267.500 L 325.400 267.399 194.887 267.299 C 90.576 267.220,64.336 267.301,64.182 267.701 M325.765 274.400 C 325.765 278.250,325.825 279.825,325.898 277.900 C 325.971 275.975,325.971 272.825,325.898 270.900 C 325.825 268.975,325.765 270.550,325.765 274.400 M74.589 282.700 L 74.600 292.200 76.400 292.233 L 78.200 292.265 76.507 292.111 L 74.814 291.957 74.696 282.578 L 74.578 273.200 74.589 282.700 M331.773 273.726 C 331.662 274.015,331.630 276.220,331.701 278.626 L 331.830 283.000 331.915 278.257 C 331.989 274.156,332.084 273.547,332.621 273.753 C 332.977 273.889,333.137 273.822,332.997 273.595 C 332.652 273.037,332.011 273.105,331.773 273.726 M54.800 274.433 C 54.329 274.762,54.392 274.798,55.092 274.602 L 55.984 274.351 56.104 282.876 L 56.223 291.400 56.212 282.833 C 56.200 274.254,56.080 273.538,54.800 274.433 M334.200 274.607 C 334.640 274.966,335.360 275.435,335.800 275.651 L 336.600 276.044 335.800 275.393 C 335.360 275.034,334.640 274.565,334.200 274.349 L 333.400 273.956 334.200 274.607 M367.110 274.801 C 368.808 275.837,369.364 275.836,367.800 274.800 C 367.140 274.363,366.420 274.005,366.200 274.004 C 365.980 274.004,366.389 274.362,367.110 274.801 M353.447 276.801 C 352.651 277.682,352.000 278.528,352.000 278.681 C 352.000 278.835,352.135 278.789,352.301 278.580 C 352.467 278.371,353.222 277.525,353.980 276.700 C 354.737 275.875,355.253 275.200,355.125 275.200 C 354.997 275.200,354.242 275.921,353.447 276.801 M367.397 278.001 C 369.293 280.218,369.320 280.242,368.886 279.400 C 368.659 278.960,367.962 278.151,367.337 277.601 L 366.200 276.603 367.397 278.001 M195.372 280.700 C 305.972 280.796,311.953 280.837,312.112 281.501 C 312.238 282.032,312.269 282.008,312.239 281.400 C 312.200 280.602,311.920 280.600,195.500 280.599 L 78.800 280.598 195.372 280.700 M369.444 281.400 C 369.773 282.871,370.002 283.190,369.994 282.167 C 369.991 281.745,369.805 281.130,369.582 280.800 C 369.285 280.362,369.248 280.524,369.444 281.400 M40.480 281.680 C 39.887 282.273,39.860 282.800,40.424 282.800 C 40.657 282.800,40.743 282.631,40.615 282.425 C 40.488 282.218,40.702 281.864,41.092 281.637 C 41.481 281.410,41.611 281.219,41.380 281.212 C 41.149 281.205,40.744 281.416,40.480 281.680 M372.101 283.000 C 372.105 283.880,372.187 284.193,372.283 283.695 C 372.379 283.198,372.375 282.478,372.275 282.095 C 372.175 281.713,372.096 282.120,372.101 283.000 M369.646 283.667 C 369.621 284.034,369.496 284.664,369.370 285.067 C 369.152 285.762,369.163 285.763,369.597 285.087 C 369.848 284.696,369.973 284.066,369.873 283.687 C 369.711 283.068,369.688 283.066,369.646 283.667 M331.737 287.800 C 331.739 289.560,331.809 290.230,331.893 289.289 C 331.978 288.349,331.977 286.909,331.891 286.089 C 331.805 285.270,331.736 286.040,331.737 287.800 M367.375 288.100 L 366.200 289.400 367.500 288.225 C 368.215 287.579,368.800 286.994,368.800 286.925 C 368.800 286.616,368.470 286.888,367.375 288.100 M352.317 287.800 C 352.545 288.240,353.332 289.140,354.066 289.799 L 355.400 290.998 354.001 289.399 C 353.232 288.520,352.445 287.620,352.252 287.400 C 352.060 287.180,352.089 287.360,352.317 287.800 M365.600 291.832 C 364.390 292.351,363.670 292.777,364.000 292.779 C 364.711 292.783,368.000 291.336,368.000 291.020 C 368.000 290.899,367.955 290.820,367.900 290.845 C 367.845 290.869,366.810 291.314,365.600 291.832 M328.183 323.400 C 328.183 332.860,328.236 336.673,328.300 331.873 C 328.364 327.073,328.363 319.333,328.299 314.673 C 328.236 310.013,328.183 313.940,328.183 323.400 M64.095 323.300 L 64.200 338.600 194.900 338.601 L 325.600 338.602 195.000 338.500 L 64.400 338.399 64.400 323.400 L 64.400 308.401 195.300 308.300 L 326.200 308.199 195.095 308.099 L 63.990 308.000 64.095 323.300 M74.573 323.400 C 74.573 328.680,74.630 330.785,74.699 328.077 C 74.768 325.369,74.768 321.049,74.699 318.477 C 74.629 315.905,74.572 318.120,74.573 323.400 M333.000 315.807 C 333.440 316.166,334.160 316.635,334.600 316.851 L 335.400 317.244 334.600 316.593 C 334.160 316.234,333.440 315.765,333.000 315.549 L 332.200 315.156 333.000 315.807 M356.800 315.618 C 356.362 315.915,356.524 315.952,357.400 315.756 C 358.871 315.427,359.190 315.198,358.167 315.206 C 357.745 315.209,357.130 315.395,356.800 315.618 M335.600 317.331 C 335.600 317.429,336.905 318.280,338.500 319.221 C 340.095 320.163,341.805 321.195,342.300 321.513 C 342.795 321.831,343.200 321.993,343.200 321.873 C 343.200 321.752,341.625 320.713,339.700 319.564 C 335.480 317.044,335.600 317.110,335.600 317.331 M367.999 318.601 C 368.768 319.480,369.555 320.380,369.748 320.600 C 369.940 320.820,369.911 320.640,369.683 320.200 C 369.455 319.760,368.668 318.860,367.934 318.201 L 366.600 317.002 367.999 318.601 M354.041 320.214 C 353.359 320.992,352.800 321.748,352.800 321.894 C 352.800 322.040,352.936 321.989,353.103 321.780 C 353.270 321.571,353.933 320.815,354.578 320.100 C 355.222 319.385,355.645 318.800,355.516 318.800 C 355.388 318.800,354.724 319.436,354.041 320.214 M39.878 321.114 C 39.279 321.776,39.296 321.868,40.116 322.378 C 40.940 322.891,40.961 322.881,40.415 322.221 C 39.895 321.592,39.915 321.452,40.592 320.957 C 41.010 320.651,41.166 320.400,40.938 320.400 C 40.710 320.400,40.233 320.721,39.878 321.114 M55.287 325.724 C 55.223 329.779,55.077 331.171,54.738 330.962 C 54.441 330.778,54.385 330.853,54.583 331.173 C 55.324 332.371,55.616 330.584,55.499 325.568 L 55.375 320.200 55.287 325.724 M344.200 322.589 C 344.640 322.944,345.360 323.492,345.800 323.807 C 346.591 324.372,346.591 324.385,345.824 324.989 C 345.396 325.325,345.239 325.600,345.475 325.600 C 347.335 325.600,346.892 323.854,344.731 322.672 C 343.743 322.131,343.606 322.110,344.200 322.589 M195.372 322.700 C 305.972 322.796,311.953 322.837,312.112 323.501 C 312.238 324.032,312.269 324.008,312.239 323.400 C 312.200 322.602,311.920 322.600,195.500 322.599 L 78.800 322.598 195.372 322.700 M325.693 323.600 C 325.693 324.370,325.775 324.685,325.876 324.300 C 325.976 323.915,325.976 323.285,325.876 322.900 C 325.775 322.515,325.693 322.830,325.693 323.600 M352.256 323.284 C 352.121 323.788,352.030 324.740,352.053 325.400 C 352.081 326.228,352.197 325.984,352.426 324.613 C 352.776 322.523,352.674 321.726,352.256 323.284 M330.920 324.800 C 330.920 326.010,330.995 326.505,331.087 325.900 C 331.178 325.295,331.178 324.305,331.087 323.700 C 330.995 323.095,330.920 323.590,330.920 324.800 M330.693 329.600 C 330.807 331.030,331.036 332.350,331.202 332.532 C 331.486 332.844,334.800 331.418,334.800 330.984 C 334.800 330.874,334.087 331.147,333.216 331.592 C 331.137 332.652,331.204 332.688,331.172 330.500 C 331.156 329.455,330.996 328.240,330.815 327.800 C 330.622 327.329,330.572 328.068,330.693 329.600 M353.114 328.600 C 353.341 329.040,354.038 329.849,354.663 330.399 L 355.800 331.397 354.603 329.999 C 352.707 327.782,352.680 327.758,353.114 328.600 M336.800 329.800 C 335.810 330.330,335.142 330.772,335.316 330.782 C 335.741 330.806,338.800 329.234,338.800 328.992 C 338.800 328.727,338.817 328.720,336.800 329.800 M368.799 330.500 C 368.210 331.304,368.113 331.584,368.545 331.233 C 369.201 330.700,370.193 329.200,369.889 329.200 C 369.813 329.200,369.322 329.785,368.799 330.500 M354.200 333.200 C 354.860 333.637,355.580 333.995,355.800 333.996 C 356.020 333.996,355.611 333.638,354.890 333.199 C 353.192 332.163,352.636 332.164,354.200 333.200 M211.000 363.000 C 211.000 364.608,211.135 365.840,211.300 365.738 C 211.465 365.636,211.600 364.404,211.600 363.000 C 211.600 361.596,211.465 360.364,211.300 360.262 C 211.135 360.160,211.000 361.392,211.000 363.000 M190.524 363.000 C 190.526 364.320,190.601 364.812,190.690 364.093 C 190.779 363.374,190.777 362.294,190.686 361.693 C 190.595 361.092,190.522 361.680,190.524 363.000 M191.914 368.200 C 192.141 368.640,192.838 369.449,193.463 369.999 L 194.600 370.997 193.403 369.599 C 191.507 367.382,191.480 367.358,191.914 368.200 M208.575 369.700 L 207.400 371.000 208.700 369.825 C 209.415 369.179,210.000 368.594,210.000 368.525 C 210.000 368.216,209.670 368.488,208.575 369.700 " stroke="none" fill="#a1a1a1" fill-rule="evenodd"></path><path id="path4" d="M23.293 58.800 C 23.293 59.570,23.375 59.885,23.476 59.500 C 23.576 59.115,23.576 58.485,23.476 58.100 C 23.375 57.715,23.293 58.030,23.293 58.800 M42.400 76.600 C 43.146 77.370,43.847 78.000,43.957 78.000 C 44.067 78.000,43.546 77.370,42.800 76.600 C 42.054 75.830,41.353 75.200,41.243 75.200 C 41.133 75.200,41.654 75.830,42.400 76.600 M81.178 76.700 L 79.800 78.200 81.300 76.822 C 82.696 75.538,82.984 75.200,82.678 75.200 C 82.612 75.200,81.937 75.875,81.178 76.700 M61.100 81.482 C 61.595 81.578,62.405 81.578,62.900 81.482 C 63.395 81.387,62.990 81.309,62.000 81.309 C 61.010 81.309,60.605 81.387,61.100 81.482 M297.383 150.400 C 297.383 159.750,297.436 163.575,297.500 158.900 C 297.564 154.225,297.564 146.575,297.500 141.900 C 297.436 137.225,297.383 141.050,297.383 150.400 M108.537 144.200 C 108.539 145.960,108.609 146.630,108.693 145.689 C 108.778 144.749,108.777 143.309,108.691 142.489 C 108.605 141.670,108.536 142.440,108.537 144.200 M108.514 150.600 C 108.517 151.700,108.595 152.103,108.687 151.495 C 108.779 150.886,108.777 149.986,108.682 149.495 C 108.587 149.003,108.511 149.500,108.514 150.600 M188.800 160.525 C 188.800 160.594,189.385 161.179,190.100 161.825 L 191.400 163.000 190.225 161.700 C 189.130 160.488,188.800 160.216,188.800 160.525 M57.337 236.600 C 57.339 238.360,57.409 239.030,57.493 238.089 C 57.578 237.149,57.577 235.709,57.491 234.889 C 57.405 234.070,57.336 234.840,57.337 236.600 M332.146 238.600 C 332.147 240.800,332.214 241.649,332.295 240.487 C 332.376 239.324,332.376 237.524,332.293 236.487 C 332.211 235.449,332.145 236.400,332.146 238.600 M360.900 275.476 C 361.285 275.576,361.915 275.576,362.300 275.476 C 362.685 275.375,362.370 275.293,361.600 275.293 C 360.830 275.293,360.515 275.375,360.900 275.476 M55.340 317.200 C 55.340 319.070,55.409 319.835,55.493 318.900 C 55.577 317.965,55.577 316.435,55.493 315.500 C 55.409 314.565,55.340 315.330,55.340 317.200 M330.937 319.800 C 330.939 321.560,331.009 322.230,331.093 321.289 C 331.178 320.349,331.177 318.909,331.091 318.089 C 331.005 317.270,330.936 318.040,330.937 319.800 M359.700 317.476 C 360.085 317.576,360.715 317.576,361.100 317.476 C 361.485 317.375,361.170 317.293,360.400 317.293 C 359.630 317.293,359.315 317.375,359.700 317.476 " stroke="none" fill="#7c7c7c" fill-rule="evenodd"></path></g></svg>